<?xml version="1.0" encoding="UTF-8"?>
<svg width="16" height="16" viewBox="0 0 16 16" xmlns="http://www.w3.org/2000/svg">
<path opacity="0.9" d="M11 1H2V15H14V4L11 1Z" fill="#687B87"/>
<path d="M3 2H10V14H3V2Z" fill="white"/>
<path d="M10 5H13V14H10V5Z" fill="white"/>
<path d="M7 7L4 7L4 6L7 6L7 7Z" fill="#8C9DAB"/>
<path d="M8 5L4 5L4 4L8 4L8 5Z" fill="#8C9DAB"/>
<g opacity="0.5">
<path d="M10 11L4 11L4 10L10 10L10 11Z" fill="#8C9DAB"/>
<path d="M12 9L4 9L4 8L12 8L12 9Z" fill="#8C9DAB"/>
</g>
<circle cx="6" cy="11" r="1.5" fill="#D6FBFC" stroke="#6B91B5"/>
</svg>
