<?xml version="1.0" encoding="UTF-8"?>
<svg width="64" height="16" viewBox="0 0 64 16" xmlns="http://www.w3.org/2000/svg">
<path opacity="0.9" d="M59 1H50V15H62V4L59 1Z" fill="#687B87"/>
<path d="M51 2H58V14H51V2Z" fill="white"/>
<path d="M58 5H61V14H58V5Z" fill="white"/>
<path d="M55 7L52 7L52 6L55 6L55 7Z" fill="#8C9DAB"/>
<path d="M56 5L52 5L52 4L56 4L56 5Z" fill="#8C9DAB"/>
<path d="M59 8.5H58.2615L58.5358 9.1857L59.6615 12L58.5358 14.8143L58.2615 15.5H59H62H62.7385L62.4642 14.8143L61.3385 12L62.4642 9.1857L62.7385 8.5H62H59Z" fill="#9EC5D9" stroke="#48669F"/>
<path opacity="0.9" d="M27 1H18V15H30V4L27 1Z" fill="#687B87"/>
<path d="M19 2H26V14H19V2Z" fill="white"/>
<path d="M26 5H29V14H26V5Z" fill="white"/>
<path d="M23 7L20 7L20 6L23 6L23 7Z" fill="#8C9DAB"/>
<path d="M24 5L20 5L20 4L24 4L24 5Z" fill="#8C9DAB"/>
<g opacity="0.5">
<path d="M26 11L20 11L20 10L26 10L26 11Z" fill="#8C9DAB"/>
<path d="M28 9L20 9L20 8L28 8L28 9Z" fill="#8C9DAB"/>
</g>
<path opacity="0.9" d="M46 9L43 10L38 8.5L34 10V15H46V9Z" fill="#687B87"/>
<path d="M35 11L38 10L42 11V14H35V11Z" fill="white"/>
<path d="M42 11H45V14H42V11Z" fill="white"/>
<path opacity="0.9" d="M43 1H34V9L38 7.5L42 8.5L46 7V4L43 1Z" fill="#687B87"/>
<path d="M35 2H42V8L38 7L35 8V2Z" fill="white"/>
<path d="M42 5H45V7L42 8V5Z" fill="white"/>
<path d="M40 5L36 5L36 4L40 4L40 5Z" fill="#8C9DAB"/>
<path d="M39 13L36 13L36 12L39 12L39 13Z" fill="#8C9DAB"/>
<circle cx="44" cy="12" r="4" fill="#E43742"/>
<rect x="41.4099" y="13.6525" width="6" height="1.32587" transform="rotate(-45 41.4099 13.6525)" fill="#E43742"/>
<circle cx="44" cy="12" r="3" fill="#FFFFC0"/>
<rect x="41.1094" y="13.9218" width="6.80585" height="1.37007" transform="rotate(-45 41.1094 13.9218)" fill="#E43742"/>
<circle cx="22" cy="11" r="1.5" fill="#D6FBFC" stroke="#6B91B5"/>
</svg>
