<svg width="16" height="16" viewBox="0 0 16 16" fill="none" xmlns="http://www.w3.org/2000/svg">
<g clip-path="url(#clip0_413_268)">
<path fill-rule="evenodd" clip-rule="evenodd" d="M6.9999 1C5.48112 1 4.2499 2.23122 4.2499 3.75C4.2499 5.26878 5.48112 6.5 6.9999 6.5C8.51869 6.5 9.7499 5.26878 9.7499 3.75C9.7499 2.23122 8.51869 1 6.9999 1ZM3.2499 3.75C3.2499 1.67893 4.92884 0 6.9999 0C9.07097 0 10.7499 1.67893 10.7499 3.75C10.7499 5.82107 9.07097 7.5 6.9999 7.5C4.92884 7.5 3.2499 5.82107 3.2499 3.75Z" fill="#333333"/>
<path fill-rule="evenodd" clip-rule="evenodd" d="M0.026353 15.462C0.302029 11.8491 3.31476 9 6.9999 9C7.3657 9 7.72522 9.0281 8.0764 9.08239C8.3493 9.12459 8.53632 9.38002 8.49413 9.65292C8.45194 9.92582 8.1965 10.1128 7.9236 10.0707C7.62287 10.0242 7.31442 10 6.9999 10C4.02828 10 1.5649 12.1629 1.08894 15H8.5C8.77614 15 9 15.2239 9 15.5C9 15.7761 8.77614 16 8.5 16H0.524904C0.385685 16 0.252771 15.942 0.158147 15.8398C0.0635239 15.7377 0.0157609 15.6008 0.026353 15.462Z" fill="#333333"/>
<circle cx="12.5" cy="12.5" r="3.5" fill="#029747"/>
<path d="M10 12H15V13H10V12Z" fill="white"/>
<path d="M13 10L13 15H12L12 10L13 10Z" fill="white"/>
</g>
<defs>
<clipPath id="clip0_413_268">
<rect width="16" height="16" fill="white"/>
</clipPath>
</defs>
</svg>
