<?xml version="1.0" encoding="UTF-8"?>
<svg width="16" height="16" viewBox="0 0 16 16" xmlns="http://www.w3.org/2000/svg">
<path opacity="0.9" d="M11 1H2V15H14V4L11 1Z" fill="#3298CC"/>
<path d="M3 2H10V14H3V2Z" fill="white"/>
<path d="M10 5H13V14H10V5Z" fill="white"/>
<path d="M7 7L4 7L4 6L7 6L7 7Z" fill="#00CBFF"/>
<path d="M8 5L4 5L4 4L8 4L8 5Z" fill="#00CBFF"/>
<path d="M8 8H16V16H9L8 15V8Z" fill="#5E84AE"/>
<path d="M9 9H15V15H10L9 14V9Z" fill="#92BBE8"/>
<rect x="10" y="9" width="4" height="3" fill="#E3ECF5"/>
<rect opacity="0.7" width="4" height="1" transform="matrix(1 0 0 -1 10 9)" fill="#E3ECF5"/>
<path d="M10.5 13H13.5V15H10.5V13Z" fill="#DAECFC"/>
<rect x="11" y="14" width="1" height="1" fill="#2A3844"/>
<rect opacity="0.3" x="11" y="10" width="2" height="1" fill="#2B537C"/>
</svg>
