<svg width="16" height="16" viewBox="0 0 16 16" fill="none" xmlns="http://www.w3.org/2000/svg">
<path opacity="0.6" d="M11.5 4H7V14H15V7.5L11.5 4Z" fill="#556575"/>
<rect x="8" y="5" width="3" height="8" fill="white"/>
<rect x="8" y="8" width="6" height="5" fill="white"/>
<path opacity="0.6" d="M5.5 0H1V10H9V3.5L5.5 0Z" fill="#556575"/>
<rect x="2" y="1" width="3" height="8" fill="white"/>
<rect x="2" y="4" width="6" height="5" fill="white"/>
<path d="M9 11.5C9 13.9853 6.98528 16 4.5 16C2.01472 16 0 13.9853 0 11.5C0 9.01472 2.01472 7 4.5 7C6.98528 7 9 9.01472 9 11.5Z" fill="#FBFCFC"/>
<path d="M9 11.5C9 11.5 6.48528 12 4 12C4 12 4 7.5 4 7C6.48528 7 9 9.01472 9 11.5Z" fill="#6DE46E"/>
<path fill-rule="evenodd" clip-rule="evenodd" d="M4.5 15C6.433 15 8 13.433 8 11.5C8 9.567 6.433 8 4.5 8C2.567 8 1 9.567 1 11.5C1 13.433 2.567 15 4.5 15ZM4.5 16C6.98528 16 9 13.9853 9 11.5C9 9.01472 6.98528 7 4.5 7C2.01472 7 0 9.01472 0 11.5C0 13.9853 2.01472 16 4.5 16Z" fill="#334659"/>
<rect x="4" y="9" width="1" height="3" fill="#2C392C"/>
<rect x="8" y="11" width="1" height="4" transform="rotate(90 8 11)" fill="#2C392C"/>
</svg>
