<svg width="16" height="16" viewBox="0 0 16 16" fill="none" xmlns="http://www.w3.org/2000/svg">
<path fill-rule="evenodd" clip-rule="evenodd" d="M9.68145 9.68145C9.87671 9.48618 10.1933 9.48618 10.3886 9.68145L14.8536 14.1464C15.0488 14.3417 15.0488 14.6583 14.8536 14.8536C14.6583 15.0488 14.3417 15.0488 14.1465 14.8536L9.68145 10.3886C9.48619 10.1933 9.48619 9.87671 9.68145 9.68145Z" fill="#333333"/>
<path d="M4.5 5.5L6.5 7.5L12.5 0.5" stroke="#029747" stroke-linecap="round" stroke-linejoin="round"/>
<path d="M2 6.5C2 4.01472 4.01472 2 6.5 2C7.0694 2 7.6141 2.10575 8.11552 2.29869L8.87595 1.53826C8.15677 1.19325 7.35095 1 6.5 1C3.46243 1 1 3.46243 1 6.5C1 9.53757 3.46243 12 6.5 12C9.53757 12 12 9.53757 12 6.5C12 5.76364 11.8553 5.06108 11.5928 4.4192L10.81 5.20199C10.9336 5.61298 11 6.04874 11 6.5C11 8.98528 8.98528 11 6.5 11C4.01472 11 2 8.98528 2 6.5Z" fill="#333333"/>
</svg>
