<svg width="144" height="16" viewBox="0 0 144 16" fill="none" xmlns="http://www.w3.org/2000/svg">
<path d="M53 7.84682L54.9321 9.77895L59.0905 5.62061" stroke="#72AF4D" stroke-width="1.3" stroke-linecap="round"/>
<path d="M24 2.62061C21.0306 2.62061 18.6118 5.03936 18.6118 8.00879C18.6118 10.9782 21.0306 13.397 24 13.397C26.9694 13.397 29.3882 10.9782 29.3882 8.00879C29.3882 5.03936 26.9694 2.62061 24 2.62061ZM24 3.69824C26.387 3.69824 28.3105 5.62176 28.3105 8.00879C28.3105 10.3958 26.387 12.3193 24 12.3193C21.613 12.3193 19.6895 10.3958 19.6895 8.00879C19.6895 5.62176 21.613 3.69824 24 3.69824ZM23.4612 4.77588V8.23189L25.7743 10.545L26.5362 9.7831L24.5388 7.78569V4.77588H23.4612Z" fill="#9B9DA8"/>
<path d="M36.6309 2.38428L36.6365 5.75366L38.8771 7.99992L36.6365 10.2518L36.6309 13.6156H43.3696V10.2462L41.1234 7.99992L43.3696 5.75928V2.38428H36.6309ZM42.2465 10.527V12.4924H37.754V10.527L40.0002 8.2807L42.2465 10.527Z" fill="#9B9DA8"/>
<path d="M69 7.84682L70.9321 9.77895L75.0905 5.62061" stroke="#3B6DB8" stroke-width="1.3" stroke-linecap="round"/>
<path d="M83 7.84682L84.9321 9.77895L89.0905 5.62061" stroke="#3B6DB8" stroke-width="1.3" stroke-linecap="round"/>
<path d="M88.5122 8.7783L89.5132 9.77895L93.6715 5.62061" stroke="#3B6DB8" stroke-width="1.3" stroke-linecap="round"/>
<path d="M108.667 3H99.3337C98.692 3 98.1728 3.5625 98.1728 4.25L98.167 11.75C98.167 12.4375 98.692 13 99.3337 13H108.667C109.309 13 109.834 12.4375 109.834 11.75V4.25C109.834 3.5625 109.309 3 108.667 3ZM108.667 5.5L104 8.625L99.3337 5.5V4.25L104 7.375L108.667 4.25V5.5Z" fill="#E6A441"/>
<path d="M124.667 3H115.334C114.692 3 114.173 3.5625 114.173 4.25L114.167 11.75C114.167 12.4375 114.692 13 115.334 13H124.667C125.309 13 125.834 12.4375 125.834 11.75V4.25C125.834 3.5625 125.309 3 124.667 3ZM124.667 5.5L120 8.625L115.334 5.5V4.25L120 7.375L124.667 4.25V5.5Z" fill="#D15A5A"/>
<path d="M140.667 4.5664H131.334C130.692 4.5664 130.173 5.1289 130.173 5.8164L130.167 13.3164C130.167 14.0039 130.692 14.5664 131.334 14.5664H140.667C141.309 14.5664 141.834 14.0039 141.834 13.3164V5.8164C141.834 5.1289 141.309 4.5664 140.667 4.5664Z" fill="#9ED87B"/>
<path d="M136 1.43359L141.082 4.64855H130.92L136 1.43359Z" fill="#9ED87B"/>
<path d="M136.001 10.0537L140.667 5.72903H131.334L136.001 10.0537Z" fill="white"/>
</svg>
