<svg width="32" height="32" viewBox="0 0 32 32" fill="none" xmlns="http://www.w3.org/2000/svg">
<path d="M16.3133 17.3904L16.3065 17.3951L16.3 17.4C16.2134 17.4649 16.1082 17.5 16 17.5C15.8918 17.5 15.7865 17.4649 15.7 17.4L15.6934 17.3951L15.6867 17.3904L5.69458 10.3959C5.59152 10.3164 5.52345 10.1997 5.50502 10.0707C5.48626 9.93943 5.52043 9.80608 5.59999 9.69999C5.67956 9.59391 5.79801 9.52377 5.92928 9.50502C6.06056 9.48626 6.19391 9.52043 6.29999 9.59999L6.30698 9.60523L6.31414 9.61022L15.7141 16.1602L16 16.3594L16.2858 16.1602L25.6858 9.61022L25.693 9.60523L25.7 9.59999C25.7525 9.5606 25.8123 9.53193 25.8759 9.51563C25.9395 9.49934 26.0057 9.49573 26.0707 9.50502C26.1357 9.5143 26.1982 9.5363 26.2547 9.56975C26.3112 9.60321 26.3606 9.64746 26.4 9.69999C26.4394 9.75252 26.4681 9.8123 26.4843 9.8759C26.5006 9.93951 26.5043 10.0057 26.495 10.0707C26.4857 10.1357 26.4637 10.1982 26.4302 10.2547C26.3979 10.3093 26.3556 10.3572 26.3054 10.3959L16.3133 17.3904ZM25.9973 3.49999H6.00264C5.41013 3.49389 4.82234 3.606 4.27366 3.82977C3.7241 4.05389 3.22485 4.38551 2.80518 4.80518C2.38551 5.22485 2.05389 5.7241 1.82977 6.27366C1.606 6.82234 1.49389 7.41013 1.49999 8.00264V23.9973C1.49389 24.5899 1.606 25.1776 1.82977 25.7263C2.05389 26.2759 2.38551 26.7751 2.80518 27.1948C3.22485 27.6145 3.7241 27.9461 4.27366 28.1702C4.82232 28.394 5.41009 28.5061 6.00258 28.5H25.9974C26.5899 28.5061 27.1777 28.394 27.7263 28.1702C28.2759 27.9461 28.7751 27.6145 29.1948 27.1948C29.6145 26.7751 29.9461 26.2759 30.1702 25.7263C30.394 25.1777 30.5061 24.5899 30.5 23.9974V8.00258C30.5061 7.41009 30.394 6.82232 30.1702 6.27366C29.9461 5.7241 29.6145 5.22485 29.1948 4.80518C28.7751 4.38552 28.2759 4.05389 27.7263 3.82977C27.1776 3.606 26.5899 3.49389 25.9973 3.49999Z" fill="url(#paint0_linear_40_355)" stroke="#BF985B"/>
<defs>
<linearGradient id="paint0_linear_40_355" x1="16" y1="4.99976" x2="16" y2="27.0002" gradientUnits="userSpaceOnUse">
<stop stop-color="#FFE298"/>
<stop offset="1" stop-color="#FFCF52"/>
</linearGradient>
</defs>
</svg>
