<?xml version="1.0" encoding="UTF-8" standalone="no"?>
<svg
   width="32"
   height="16"
   viewBox="0 0 31.999997 16"
   fill="none"
   version="1.1"
   id="svg21"
   sodipodi:docname="Закладки.svg"
   inkscape:version="1.1.2 (b8e25be833, 2022-02-05)"
   xmlns:inkscape="http://www.inkscape.org/namespaces/inkscape"
   xmlns:sodipodi="http://sodipodi.sourceforge.net/DTD/sodipodi-0.dtd"
   xmlns="http://www.w3.org/2000/svg"
   xmlns:svg="http://www.w3.org/2000/svg">
  <defs
     id="defs25">
    <linearGradient
       id="paint0_linear_26_94"
       x1="6.5"
       y1="-0.42857099"
       x2="6.5"
       y2="6.4285698"
       gradientUnits="userSpaceOnUse"
       gradientTransform="translate(16)">
      <stop
         stop-color="#FC3E26"
         id="stop119" />
      <stop
         offset="1"
         stop-color="#C42A20"
         id="stop121" />
    </linearGradient>
  </defs>
  <sodipodi:namedview
     id="namedview23"
     pagecolor="#ffffff"
     bordercolor="#666666"
     borderopacity="1.0"
     inkscape:pageshadow="2"
     inkscape:pageopacity="0.0"
     inkscape:pagecheckerboard="0"
     showgrid="true"
     inkscape:snap-page="true"
     width="32mm"
     units="px"
     inkscape:zoom="28.46875"
     inkscape:cx="21.12843"
     inkscape:cy="15.139407"
     inkscape:window-width="1080"
     inkscape:window-height="1805"
     inkscape:window-x="-8"
     inkscape:window-y="-8"
     inkscape:window-maximized="1"
     inkscape:current-layer="svg21">
    <inkscape:grid
       type="xygrid"
       id="grid255" />
  </sodipodi:namedview>
  <rect
     x="4"
     y="1"
     width="10"
     height="14"
     rx="1"
     fill="#75b1b5"
     id="rect9" />
  <rect
     x="3"
     y="1"
     width="10"
     height="14"
     rx="1"
     fill="#b4e0e2"
     id="rect11" />
  <rect
     x="2"
     y="1"
     width="10"
     height="14"
     rx="1"
     fill="#75b1b5"
     id="rect13" />
  <rect
     opacity="0.5"
     x="4"
     y="5"
     width="6"
     height="1"
     fill="#d9d9d9"
     id="rect15" />
  <rect
     opacity="0.5"
     x="5"
     y="7"
     width="4"
     height="1"
     fill="#d9d9d9"
     id="rect17" />
  <path
     d="M 6.8254,3.47751 6.5,3.1986 6.1746,3.47751 4.5,4.91289 V 0.857143 C 4.5,0.648485 4.66433,0.5 4.83333,0.5 H 8.16667 C 8.33567,0.5 8.5,0.648485 8.5,0.857143 V 4.91289 Z"
     stroke="#000000"
     id="path19" />
  <rect
     x="20"
     y="0.99999988"
     width="10"
     height="14"
     rx="1"
     fill="#75b1b5"
     id="rect107" />
  <rect
     x="19"
     y="0.99999988"
     width="10"
     height="14"
     rx="1"
     fill="#b4e0e2"
     id="rect109" />
  <rect
     x="18"
     y="0.99999988"
     width="10"
     height="14"
     rx="1"
     fill="#75b1b5"
     id="rect111" />
  <rect
     opacity="0.5"
     x="20"
     y="5"
     width="6"
     height="1"
     fill="#d9d9d9"
     id="rect113" />
  <rect
     opacity="0.5"
     x="21"
     y="7"
     width="4"
     height="1"
     fill="#d9d9d9"
     id="rect115" />
  <path
     d="M 20.83333,-4.7683716e-7 C 20.375,-4.7683716e-7 20,0.38571352 20,0.85714252 V 12 L 22.5,9.8571395 25,12 V 0.85714252 C 25,0.38571352 24.625,-4.7683716e-7 24.16667,-4.7683716e-7 Z"
     fill="url(#paint0_linear_26_94)"
     id="path117"
     style="fill:url(#paint0_linear_26_94)" />
</svg>
