<svg width="48" height="48" viewBox="0 0 48 48" fill="none" xmlns="http://www.w3.org/2000/svg">
<path d="M35.625 25.2194C35.4779 25.1016 35.3005 25.0278 35.1133 25.0064C34.9261 24.9851 34.7367 25.0171 34.5668 25.0987C34.397 25.1803 34.2537 25.3083 34.1534 25.4678C34.0531 25.6273 33.9999 25.8119 34 26.0004V32.0004H21C20.4696 32.0004 19.9609 32.2111 19.5858 32.5862C19.2107 32.9612 19 33.4699 19 34.0004C19 34.5308 19.2107 35.0395 19.5858 35.4146C19.9609 35.7897 20.4696 36.0004 21 36.0004H34V42.0004C33.9999 42.1888 34.0531 42.3734 34.1534 42.533C34.2537 42.6925 34.397 42.8204 34.5668 42.9021C34.7367 42.9837 34.9261 43.0157 35.1133 42.9943C35.3005 42.973 35.4779 42.8991 35.625 42.7814L45.625 34.7814C45.7422 34.6877 45.8367 34.5689 45.9017 34.4337C45.9667 34.2985 46.0005 34.1504 46.0005 34.0004C46.0005 33.8504 45.9667 33.7023 45.9017 33.5671C45.8367 33.4319 45.7422 33.3131 45.625 33.2194L35.625 25.2194Z" fill="white"/>
<path d="M27 16.0004C27.5304 16.0004 28.0391 15.7897 28.4142 15.4146C28.7893 15.0395 29 14.5308 29 14.0004C29 13.4699 28.7893 12.9612 28.4142 12.5862C28.0391 12.2111 27.5304 12.0004 27 12.0004H14V6.00038C14.0001 5.81194 13.9469 5.62733 13.8466 5.4678C13.7463 5.30827 13.603 5.18032 13.4332 5.09869C13.2633 5.01707 13.0739 4.98509 12.8867 5.00644C12.6995 5.02779 12.5221 5.10161 12.375 5.21938L2.37498 13.2194C2.25783 13.3131 2.16325 13.4319 2.09825 13.5671C2.03326 13.7023 1.99951 13.8504 1.99951 14.0004C1.99951 14.1504 2.03326 14.2985 2.09825 14.4337C2.16325 14.5689 2.25783 14.6877 2.37498 14.7814L12.375 22.7814C12.5221 22.8991 12.6995 22.973 12.8867 22.9943C13.0739 23.0157 13.2633 22.9837 13.4332 22.9021C13.603 22.8204 13.7463 22.6925 13.8466 22.533C13.9469 22.3734 14.0001 22.1888 14 22.0004V16.0004H27Z" fill="white"/>
</svg>
