<svg width="32" height="32" viewBox="0 0 32 32" fill="none" xmlns="http://www.w3.org/2000/svg">
<g clip-path="url(#clip0_5113:4997)">
<path d="M16.5 20.5C18.7091 20.5 20.5 18.7091 20.5 16.5C20.5 14.2909 18.7091 12.5 16.5 12.5C14.2909 12.5 12.5 14.2909 12.5 16.5C12.5 18.7091 14.2909 20.5 16.5 20.5Z" stroke="#7E7E7E" stroke-miterlimit="10" stroke-linecap="round" stroke-linejoin="round"/>
<path d="M29.5152 14.2522L27.1942 13.9622C26.9241 12.8216 26.4719 11.732 25.8552 10.7352L27.2932 8.88623C27.6331 8.4505 27.8019 7.90556 27.768 7.35401C27.734 6.80246 27.4996 6.28235 27.1089 5.89161C26.7181 5.50086 26.198 5.26644 25.6464 5.23248C25.0949 5.19853 24.55 5.36737 24.1142 5.70723L22.2652 7.14523C21.2684 6.52852 20.1788 6.0764 19.0382 5.80623L18.7482 3.48523C18.6844 2.93326 18.4199 2.42401 18.005 2.05436C17.5901 1.68472 17.0539 1.48047 16.4982 1.48047C15.9426 1.48047 15.4063 1.68472 14.9914 2.05436C14.5766 2.42401 14.3121 2.93326 14.2482 3.48523L13.9582 5.80623C12.8176 6.0764 11.728 6.52852 10.7312 7.14523L8.88623 5.70723C8.4505 5.36737 7.90556 5.19853 7.35401 5.23248C6.80246 5.26644 6.28235 5.50086 5.89161 5.89161C5.50086 6.28235 5.26644 6.80246 5.23248 7.35401C5.19853 7.90556 5.36737 8.4505 5.70723 8.88623L7.14523 10.7352C6.52852 11.732 6.0764 12.8216 5.80623 13.9622L3.48523 14.2522C2.93326 14.3161 2.42401 14.5806 2.05436 14.9954C1.68472 15.4103 1.48047 15.9466 1.48047 16.5022C1.48047 17.0579 1.68472 17.5941 2.05436 18.009C2.42401 18.4239 2.93326 18.6884 3.48523 18.7522L5.80623 19.0422C6.0764 20.1828 6.52852 21.2724 7.14523 22.2692L5.70723 24.1142C5.36737 24.55 5.19853 25.0949 5.23248 25.6464C5.26644 26.198 5.50086 26.7181 5.89161 27.1089C6.28235 27.4996 6.80246 27.734 7.35401 27.768C7.90556 27.8019 8.4505 27.6331 8.88623 27.2932L10.7352 25.8552C11.732 26.4719 12.8216 26.9241 13.9622 27.1942L14.2522 29.5152C14.3161 30.0672 14.5806 30.5764 14.9954 30.9461C15.4103 31.3157 15.9466 31.52 16.5022 31.52C17.0579 31.52 17.5941 31.3157 18.009 30.9461C18.4239 30.5764 18.6884 30.0672 18.7522 29.5152L19.0422 27.1942C20.1828 26.9241 21.2724 26.4719 22.2692 25.8552L24.1182 27.2932C24.554 27.6331 25.0989 27.8019 25.6504 27.768C26.202 27.734 26.7221 27.4996 27.1129 27.1089C27.5036 26.7181 27.738 26.198 27.772 25.6464C27.8059 25.0949 27.6371 24.55 27.2972 24.1142L25.8592 22.2652C26.4759 21.2684 26.9281 20.1788 27.1982 19.0382L29.5192 18.7482C30.0712 18.6844 30.5804 18.4199 30.9501 18.005C31.3197 17.5901 31.524 17.0539 31.524 16.4982C31.524 15.9426 31.3197 15.4063 30.9501 14.9914C30.5804 14.5766 30.0712 14.3121 29.5192 14.2482L29.5152 14.2522Z" stroke="#7E7E7E" stroke-miterlimit="10" stroke-linecap="round" stroke-linejoin="round"/>
</g>
<defs>
<clipPath id="clip0_5113:4997">
<rect width="32" height="32" fill="white"/>
</clipPath>
</defs>
</svg>
