<svg width="32" height="32" viewBox="0 0 32 32" fill="none" xmlns="http://www.w3.org/2000/svg">
<path d="M29 4H25V7H27V29H5V7H7V4H3C2.447 4 2 4.448 2 5V31C2 31.552 2.447 32 3 32H29C29.553 32 30 31.552 30 31V5C30 4.448 29.553 4 29 4Z" fill="#333333"/>
<path d="M20 4C20 1.791 18.209 0 16 0C13.791 0 12 1.791 12 4H9V9H23V4H20Z" fill="#333333"/>
<path d="M14.9999 22.9999C14.7439 22.9999 14.4879 22.9019 14.2929 22.7069L10.5859 18.9999L11.9999 17.5859L14.9999 20.5859L20.9999 14.5859L22.4139 15.9999L15.7069 22.7069C15.5119 22.9019 15.2559 22.9999 14.9999 22.9999Z" fill="#333333"/>
</svg>
