<svg width="16" height="16" viewBox="0 0 16 16" fill="none" xmlns="http://www.w3.org/2000/svg">
<rect x="4" y="9.74902" width="8" height="2.83801" fill="#E0E0E0"/>
<rect x="4" y="4.07275" width="8" height="2.83801" fill="#F3F3F3"/>
<rect x="4" y="6.91064" width="8" height="2.83801" fill="#EAEAEA"/>
<rect x="4" y="1.23486" width="8" height="2.83801" fill="#FCFCFC"/>
<path d="M10.9088 0H5.09063C4.087 0 3.27246 0.814542 3.27246 1.81817V14.1818C3.27246 15.1854 4.087 15.9999 5.09063 15.9999H10.9088C11.9124 15.9999 12.727 15.1854 12.727 14.1818V1.81817C12.727 0.814542 11.9124 0 10.9088 0ZM7.99971 15.2727C7.39608 15.2727 6.90881 14.7854 6.90881 14.1818C6.90881 13.5781 7.39608 13.0909 7.99971 13.0909C8.60335 13.0909 9.09062 13.5781 9.09062 14.1818C9.09062 14.7854 8.60335 15.2727 7.99971 15.2727ZM11.2724 12.3636H4.727V2.18181H11.2724V12.3636Z" fill="#5383CB"/>
</svg>
