<svg width="14" height="14" viewBox="0 0 14 14" fill="none" xmlns="http://www.w3.org/2000/svg">
<path d="M1.55556 6.22222H4.66667C5.52222 6.22222 6.22222 5.52222 6.22222 4.66667V1.55556C6.22222 0.7 5.52222 0 4.66667 0H1.55556C0.7 0 0 0.7 0 1.55556V4.66667C0 5.52222 0.7 6.22222 1.55556 6.22222ZM1.55556 1.55556H4.66667V4.66667H1.55556V1.55556Z" fill="black"/>
<path d="M1.55556 14.0001H4.66667C5.52222 14.0001 6.22222 13.3001 6.22222 12.4445V9.33339C6.22222 8.47783 5.52222 7.77783 4.66667 7.77783H1.55556C0.7 7.77783 0 8.47783 0 9.33339V12.4445C0 13.3001 0.7 14.0001 1.55556 14.0001ZM1.55556 9.33339H4.66667V12.4445H1.55556V9.33339Z" fill="black"/>
<path d="M7.77734 1.55556V4.66667C7.77734 5.52222 8.47734 6.22222 9.3329 6.22222H12.444C13.2996 6.22222 13.9996 5.52222 13.9996 4.66667V1.55556C13.9996 0.7 13.2996 0 12.444 0H9.3329C8.47734 0 7.77734 0.7 7.77734 1.55556ZM12.444 4.66667H9.3329V1.55556H12.444V4.66667Z" fill="black"/>
<path d="M14.0009 13.611V12.8332C14.0009 12.6154 13.8298 12.4443 13.612 12.4443H12.8342C12.6164 12.4443 12.4453 12.6154 12.4453 12.8332V13.611C12.4453 13.8288 12.6164 13.9999 12.8342 13.9999H13.612C13.8298 13.9999 14.0009 13.8288 14.0009 13.611Z" fill="black"/>
<path d="M7.77734 8.16672V8.9445C7.77734 9.16228 7.94845 9.33339 8.16623 9.33339H8.94401C9.16179 9.33339 9.3329 9.16228 9.3329 8.9445V8.16672C9.3329 7.94894 9.16179 7.77783 8.94401 7.77783H8.16623C7.94845 7.77783 7.77734 7.94894 7.77734 8.16672Z" fill="black"/>
<path d="M10.5007 9.33325H9.72287C9.5051 9.33325 9.33398 9.50436 9.33398 9.72214V10.4999C9.33398 10.7177 9.5051 10.8888 9.72287 10.8888H10.5007C10.7184 10.8888 10.8895 10.7177 10.8895 10.4999V9.72214C10.8895 9.50436 10.7184 9.33325 10.5007 9.33325Z" fill="black"/>
<path d="M7.77734 11.2778V12.0556C7.77734 12.2734 7.94845 12.4445 8.16623 12.4445H8.94401C9.16179 12.4445 9.3329 12.2734 9.3329 12.0556V11.2778C9.3329 11.06 9.16179 10.8889 8.94401 10.8889H8.16623C7.94845 10.8889 7.77734 11.06 7.77734 11.2778Z" fill="black"/>
<path d="M9.72287 13.9999H10.5007C10.7184 13.9999 10.8895 13.8288 10.8895 13.611V12.8332C10.8895 12.6154 10.7184 12.4443 10.5007 12.4443H9.72287C9.5051 12.4443 9.33398 12.6154 9.33398 12.8332V13.611C9.33398 13.8288 9.5051 13.9999 9.72287 13.9999Z" fill="black"/>
<path d="M11.2776 12.4445H12.0553C12.2731 12.4445 12.4442 12.2734 12.4442 12.0556V11.2778C12.4442 11.06 12.2731 10.8889 12.0553 10.8889H11.2776C11.0598 10.8889 10.8887 11.06 10.8887 11.2778V12.0556C10.8887 12.2734 11.0598 12.4445 11.2776 12.4445Z" fill="black"/>
<path d="M12.0553 7.77783H11.2776C11.0598 7.77783 10.8887 7.94894 10.8887 8.16672V8.9445C10.8887 9.16228 11.0598 9.33339 11.2776 9.33339H12.0553C12.2731 9.33339 12.4442 9.16228 12.4442 8.9445V8.16672C12.4442 7.94894 12.2731 7.77783 12.0553 7.77783Z" fill="black"/>
<path d="M12.8342 10.8888H13.612C13.8298 10.8888 14.0009 10.7177 14.0009 10.4999V9.72214C14.0009 9.50436 13.8298 9.33325 13.612 9.33325H12.8342C12.6164 9.33325 12.4453 9.50436 12.4453 9.72214V10.4999C12.4453 10.7177 12.6164 10.8888 12.8342 10.8888Z" fill="black"/>
</svg>
