<svg width="16" height="16" viewBox="0 0 16 16" fill="none" xmlns="http://www.w3.org/2000/svg">
<path d="M8 5C9.38071 5 10.5 3.88071 10.5 2.5C10.5 1.11929 9.38071 0 8 0C6.61929 0 5.5 1.11929 5.5 2.5C5.5 3.88071 6.61929 5 8 5Z" fill="#3379E2"/>
<path d="M14.6508 9.241L11.1508 6.241C10.9696 6.08551 10.7387 6.00002 10.4998 6H5.49984C5.26103 6.00002 5.0301 6.08551 4.84884 6.241L1.34884 9.241C1.24431 9.33069 1.15943 9.44101 1.09952 9.56504C1.03962 9.68907 1.00599 9.82413 1.00073 9.96177C0.995471 10.0994 1.0187 10.2366 1.06897 10.3649C1.11924 10.4931 1.19545 10.6096 1.29284 10.707L3.99984 13.414V10.586L3.47084 10.057L4.99984 8.746V15C4.99984 15.2652 5.1052 15.5196 5.29274 15.7071C5.48027 15.8946 5.73463 16 5.99984 16H9.99984C10.2651 16 10.5194 15.8946 10.707 15.7071C10.8945 15.5196 10.9998 15.2652 10.9998 15V8.746L12.5288 10.057L11.9998 10.586V13.414L14.7068 10.707C14.8042 10.6096 14.8804 10.4931 14.9307 10.3649C14.981 10.2366 15.0042 10.0994 14.999 9.96177C14.9937 9.82413 14.9601 9.68907 14.9002 9.56504C14.8403 9.44101 14.7554 9.33069 14.6508 9.241V9.241Z" fill="#3379E2"/>
</svg>
