<svg width="84" height="40" viewBox="0 0 84 40" fill="none" xmlns="http://www.w3.org/2000/svg">
<path d="M30.4905 23.9047H24.1939L32.2325 13.2217C32.4077 12.9872 32.359 12.6451 32.1254 12.4692C32.0379 12.4007 31.9211 12.3616 31.8043 12.3616H20.1745C19.1526 12.3616 18.3157 13.2022 18.3157 14.2285C18.3157 15.2547 19.1526 16.0953 20.1745 16.0953H25.4006L17.3328 26.788C17.1478 27.0226 17.1965 27.3549 17.4301 27.5406C17.5274 27.6188 17.6442 27.6579 17.761 27.6481H30.4808C31.5026 27.5993 32.2909 26.7196 32.2422 25.6836C32.1936 24.7257 31.4345 23.9633 30.4808 23.9145V23.9047H30.4905ZM71.1315 12.3616C70.1095 12.3616 69.2727 13.2022 69.2727 14.2285V20.4936L59.2292 12.4887C59.0052 12.303 58.6648 12.3323 58.48 12.5669C58.402 12.6646 58.3632 12.7819 58.3632 12.909V25.7813C58.3632 26.8076 59.2 27.6481 60.2217 27.6481C61.2437 27.6481 62.0805 26.8173 62.0805 25.7813V19.5162L72.124 27.5308C72.3576 27.7166 72.6984 27.6775 72.8832 27.4429C72.9612 27.3451 73 27.2279 73 27.1106V14.2285C72.9904 13.1924 72.1632 12.3616 71.1315 12.3616ZM44.5532 24.2566C40.3003 24.2566 37.1278 22.0086 37.1278 19.9951C37.1278 17.9817 40.3099 15.7337 44.5532 15.7337C48.8061 15.7337 51.9787 17.9817 51.9787 19.9951C51.9787 22.0086 48.8158 24.2566 44.5532 24.2566ZM44.5532 12C38.4026 12 33.4101 15.5773 33.4101 19.9951C33.4101 24.4129 38.4026 27.9902 44.5532 27.9902C50.7038 27.9902 55.6963 24.4129 55.6963 19.9951C55.6963 15.5773 50.7038 12 44.5532 12ZM7.97054 24.2663C5.62511 24.2663 3.71762 22.3604 3.71762 20.0049C3.71762 17.6494 5.61539 15.7337 7.96082 15.7337C10.3062 15.7337 12.2137 17.6396 12.2137 19.9951V20.0049C12.2137 22.3506 10.316 24.2566 7.97054 24.2663ZM7.97054 12C3.57166 12 0.00973203 15.5773 0 19.9951C0 24.4129 3.56194 27.9902 7.96082 28C12.3597 28 15.9216 24.4227 15.9314 20.0049V19.9951C15.9216 15.5773 12.3597 12 7.97054 12Z" fill="#005BFF"/>
</svg>
