<?xml version="1.0" encoding="UTF-8"?>
<svg width="48" height="16" viewBox="0 0 48 16" xmlns="http://www.w3.org/2000/svg">
<path d="M18 3H19V4H18V3Z" fill="#ED2D24"/>
<path d="M18 6H19V7H18V6Z" fill="#ED2D24"/>
<path d="M18 9H19V10H18V9Z" fill="#ED2D24"/>
<path d="M18 12H19V13H18V12Z" fill="#ED2D24"/>
<path d="M21 3H30V4H21V3Z" fill="#ED2D24"/>
<path d="M21 6H30V7H21V6Z" fill="#ED2D24"/>
<path d="M21 9H30V10H21V9Z" fill="#ED2D24"/>
<path d="M21 12H30V13H21V12Z" fill="#ED2D24"/>
<rect opacity="0.9" x="1" y="2" width="13" height="12" rx="1" fill="#687B87"/>
<rect x="2" y="3" width="3" height="2" fill="#EBD045"/>
<rect x="2" y="6" width="3" height="7" fill="white"/>
<rect x="6" y="3" width="3" height="2" fill="#EBD045"/>
<rect x="6" y="6" width="3" height="7" fill="white"/>
<rect x="10" y="3" width="3" height="2" fill="#EBD045"/>
<rect x="10" y="6" width="3" height="7" fill="white"/>
<path opacity="0.9" d="M45 2H36V16H48V5L45 2Z" fill="#687B87"/>
<path d="M37 3H44V15H37V3Z" fill="white"/>
<path d="M44 6H47V15H44V6Z" fill="white"/>
<path d="M44 8H46V9H44V8Z" fill="#8C9DAB"/>
<path d="M43 10H46V11H43V10Z" fill="#8C9DAB"/>
<path d="M38 12H46V13H38V12Z" fill="#8C9DAB"/>
<path d="M32.7071 3.70711C32.3166 3.31658 32.3166 2.68342 32.7071 2.29289L34.2929 0.707076C34.6834 0.316552 35.3166 0.316552 35.7071 0.707076L37.4945 2.49446L34.4945 5.49449L32.7071 3.70711Z" fill="#4C5165"/>
<path d="M36.8884 1.86121L39.8787 4.85153L39.3612 7.36121L36.8516 7.87869L33.8612 4.88837L36.8884 1.86121Z" fill="#56C264"/>
<path d="M42.2344 10.2344L36.8612 7.86121L38.2344 7.23438L37.7344 5.73438L39.2344 6.23438L39.8612 4.86121L42.2344 10.2344Z" fill="#93734E"/>
<path d="M41.3612 9.36121L37.8612 7.86121L38.6279 7.18622L38.3488 6.34872L39.1862 6.62789L39.8612 5.86121L41.3612 9.36121Z" fill="#FFC857"/>
<path d="M42.3612 10.3612L40.3612 9.36121V8.86121V8.36121H40.8612H41.3612L42.3612 10.3612Z" fill="black"/>
</svg>
