<svg width="32" height="32" viewBox="0 0 32 32" fill="none" xmlns="http://www.w3.org/2000/svg">
<path d="M9.5 7.5C11.1569 7.5 12.5 6.15685 12.5 4.5C12.5 2.84315 11.1569 1.5 9.5 1.5C7.84315 1.5 6.5 2.84315 6.5 4.5C6.5 6.15685 7.84315 7.5 9.5 7.5Z" stroke="#7E7E7E" stroke-miterlimit="10" stroke-linecap="round" stroke-linejoin="round"/>
<path d="M22.5 10.5H7.5C6.96957 10.5 6.46086 10.7107 6.08579 11.0858C5.71071 11.4609 5.5 11.9696 5.5 12.5V23.5L1.5 30.5" stroke="#7E7E7E" stroke-miterlimit="10" stroke-linecap="round" stroke-linejoin="round"/>
<path d="M14.5 30.5V25C14.5 24.8448 14.4639 24.6916 14.3944 24.5528C14.325 24.4139 14.2242 24.2931 14.1 24.2L10.5 21.5V14.5" stroke="#7E7E7E" stroke-miterlimit="10" stroke-linecap="round" stroke-linejoin="round"/>
<path d="M28.5 5.5H21.5C20.3954 5.5 19.5 6.39543 19.5 7.5V10.5C19.5 11.6046 20.3954 12.5 21.5 12.5H28.5C29.6046 12.5 30.5 11.6046 30.5 10.5V7.5C30.5 6.39543 29.6046 5.5 28.5 5.5Z" stroke="#7E7E7E" stroke-miterlimit="10" stroke-linecap="round" stroke-linejoin="round"/>
<path d="M28.5 23.5H21.5C20.3954 23.5 19.5 24.3954 19.5 25.5V28.5C19.5 29.6046 20.3954 30.5 21.5 30.5H28.5C29.6046 30.5 30.5 29.6046 30.5 28.5V25.5C30.5 24.3954 29.6046 23.5 28.5 23.5Z" stroke="#7E7E7E" stroke-miterlimit="10" stroke-linecap="round" stroke-linejoin="round"/>
<path d="M28.5 14.5H21.5C20.3954 14.5 19.5 15.3954 19.5 16.5V19.5C19.5 20.6046 20.3954 21.5 21.5 21.5H28.5C29.6046 21.5 30.5 20.6046 30.5 19.5V16.5C30.5 15.3954 29.6046 14.5 28.5 14.5Z" stroke="#7E7E7E" stroke-miterlimit="10" stroke-linecap="round" stroke-linejoin="round"/>
</svg>
