<svg width="16" height="16" viewBox="0 0 16 16" fill="none" xmlns="http://www.w3.org/2000/svg">
<path fill-rule="evenodd" clip-rule="evenodd" d="M11.792 2.78409C11.7196 2.81322 11.6969 2.92125 11.6969 3.23713V3.5501L11.5114 3.56492C10.7991 3.62186 10.2654 3.80187 9.70726 4.17344C8.87913 4.72476 8.30239 5.64974 8.16494 6.64711C8.13081 6.89476 8.13066 7.42308 8.16463 7.63629C8.2035 7.88022 8.26073 8.10245 8.27939 8.08197C8.28867 8.07178 8.31408 8.0078 8.33587 7.9398C8.49258 7.45019 8.83202 6.93168 9.26572 6.51935C9.85907 5.95524 10.6595 5.60534 11.4535 5.563L11.6935 5.55019L11.7009 5.8884C11.7072 6.1832 11.7136 6.23268 11.751 6.27387C11.8084 6.33722 11.9305 6.33502 12.0454 6.26861C12.1329 6.21805 14.208 4.90221 14.3859 4.78451C14.5631 4.66725 14.5964 4.50361 14.4678 4.3827C14.4081 4.32666 12.1409 2.88047 11.9959 2.80601C11.9252 2.76968 11.8484 2.76143 11.792 2.78409ZM3.37726 4.82687C3.25688 4.86399 3.13964 4.971 3.0826 5.09588C3.04341 5.18165 3.0415 5.33877 3.04103 8.49923C3.04067 10.9181 3.04746 11.8358 3.06619 11.8983C3.10036 12.0123 3.20348 12.1338 3.31815 12.1951L3.41152 12.245H7.98703C12.3532 12.245 12.5674 12.2431 12.6683 12.2042C12.7923 12.1564 12.8908 12.0527 12.9425 11.9158C12.9762 11.8265 12.9789 11.5673 12.9733 8.97891L12.9672 6.13999L12.3546 6.52843L11.742 6.91689L11.7419 8.70868C11.7419 9.88478 11.7337 10.5386 11.7181 10.6115C11.6889 10.7476 11.568 10.8965 11.4396 10.9549C11.3523 10.9945 11.2043 10.9963 8.00317 10.9968C4.31075 10.9973 4.58049 11.0084 4.42647 10.8498C4.27048 10.6892 4.27554 10.7729 4.28233 8.4664L4.2884 6.39981L4.34461 6.29963C4.41642 6.17169 4.54802 6.08026 4.70179 6.05151C4.7757 6.0377 5.42926 6.02887 6.37838 6.02887H7.93385L7.97381 5.8996C8.04944 5.65486 8.21727 5.28437 8.36056 5.04582C8.43954 4.91435 8.50416 4.80351 8.50416 4.79958C8.50416 4.79562 7.37351 4.79308 5.99157 4.79396C3.90948 4.79524 3.46155 4.80088 3.37726 4.82687Z" fill="#6A6F78"/>
</svg>
