<svg width="16" height="16" viewBox="0 0 16 16" fill="none" xmlns="http://www.w3.org/2000/svg">
<path d="M12 14.5H4C3.172 14.5 2.5 13.828 2.5 13V8C2.5 7.172 3.172 6.5 4 6.5H12C12.828 6.5 13.5 7.172 13.5 8V13C13.5 13.828 12.828 14.5 12 14.5Z" fill="#FFBC41" stroke="#B56405" stroke-linecap="round" stroke-linejoin="round"/>
<path d="M4.5 6.5V5C4.5 3.067 6.067 1.5 8 1.5C9.933 1.5 11.5 3.067 11.5 5V6.5" stroke="#6E6E6E" stroke-linecap="round" stroke-linejoin="round"/>
<path d="M8 12C8.82843 12 9.5 11.3284 9.5 10.5C9.5 9.67157 8.82843 9 8 9C7.17157 9 6.5 9.67157 6.5 10.5C6.5 11.3284 7.17157 12 8 12Z" fill="black" stroke="#B56405" stroke-linecap="round" stroke-linejoin="round"/>
</svg>
