<svg width="16" height="16" viewBox="0 0 16 16" fill="none" xmlns="http://www.w3.org/2000/svg">
<path d="M8 6.5C4.96231 6.5 2.5 9.41 2.5 13V13.5H13.5V13C13.5 9.41 11.0377 6.5 8 6.5Z" stroke="#7E7E7E" stroke-linecap="round" stroke-linejoin="round"/>
<path d="M12.5 5.5H3.5C1.843 5.5 0.5 4.157 0.5 2.5H15.5C15.5 4.157 14.157 5.5 12.5 5.5Z" stroke="#7E7E7E" stroke-linecap="round" stroke-linejoin="round"/>
<path d="M8 11.5C8.82843 11.5 9.5 10.8284 9.5 10C9.5 9.17157 8.82843 8.5 8 8.5C7.17157 8.5 6.5 9.17157 6.5 10C6.5 10.8284 7.17157 11.5 8 11.5Z" stroke="#7E7E7E" stroke-linecap="round" stroke-linejoin="round"/>
</svg>
