<svg width="32" height="32" viewBox="0 0 32 32" fill="none" xmlns="http://www.w3.org/2000/svg">
<g clip-path="url(#clip0_5113:5001)">
<path d="M31.9842 15.72C31.9216 15.1796 31.6782 14.6761 31.2936 14.2913C30.909 13.9065 30.4056 13.6629 29.8652 13.6V13.6L27.3882 13.299C27.1009 12.0832 26.6194 10.9216 25.9622 9.85904L27.4942 7.88904C27.8588 7.42517 28.0408 6.84381 28.0058 6.25486C27.9708 5.66591 27.7212 5.11019 27.3043 4.69276C26.8873 4.27533 26.3319 4.02511 25.743 3.98942C25.1541 3.95372 24.5725 4.13502 24.1082 4.49904L22.1382 6.03104C21.076 5.37543 19.9152 4.89528 18.7002 4.60904L18.3912 2.13704C18.3241 1.54842 18.0428 1.00506 17.6008 0.61057C17.1588 0.216078 16.5871 -0.00195312 15.9947 -0.00195312C15.4023 -0.00195312 14.8306 0.216078 14.3886 0.61057C13.9466 1.00506 13.6653 1.54842 13.5982 2.13704L13.2902 4.60904C12.0755 4.89699 10.915 5.37848 9.8532 6.03504L7.8882 4.49904C7.4241 4.1331 6.84184 3.95021 6.25185 3.98507C5.66186 4.01992 5.10518 4.27009 4.6874 4.68812C4.26961 5.10616 4.01977 5.66299 3.98526 6.253C3.95076 6.843 4.13399 7.42516 4.5002 7.88904L6.0342 9.85904C5.37659 10.9214 4.89505 12.083 4.6082 13.299L2.1352 13.608C1.54806 13.6771 1.00668 13.9592 0.613809 14.401C0.220936 14.8427 0.00390625 15.4134 0.00390625 16.0045C0.00390625 16.5957 0.220936 17.1663 0.613809 17.6081C1.00668 18.0499 1.54806 18.332 2.1352 18.401L4.6082 18.709C4.89552 19.9243 5.37704 21.0852 6.0342 22.147L4.5002 24.109C4.13399 24.5729 3.95076 25.1551 3.98526 25.7451C4.01977 26.3351 4.26961 26.8919 4.6874 27.31C5.10518 27.728 5.66186 27.9782 6.25185 28.013C6.84184 28.0479 7.4241 27.865 7.8882 27.499L9.8582 25.967C10.9216 26.623 12.0839 27.1032 13.3002 27.389L13.6092 29.861C13.6772 30.4488 13.9589 30.991 14.4007 31.3846C14.8425 31.7782 15.4135 31.9957 16.0052 31.9957C16.5969 31.9957 17.1679 31.7782 17.6097 31.3846C18.0515 30.991 18.3332 30.4488 18.4012 29.861L18.7002 27.389C19.915 27.1015 21.0756 26.62 22.1372 25.963L24.1072 27.495C24.5708 27.8625 25.1532 28.0469 25.7437 28.0132C26.3343 27.9794 26.8919 27.73 27.3106 27.3121C27.7294 26.8943 27.98 26.3372 28.0149 25.7466C28.0499 25.1561 27.8667 24.5734 27.5002 24.109L25.9682 22.139C26.6251 21.0766 27.106 19.9149 27.3922 18.699L29.8652 18.39C30.5001 18.3165 31.0798 17.9941 31.4771 17.4935C31.8744 16.9928 32.0568 16.355 31.9842 15.72ZM16.0002 20.999C15.0113 20.999 14.0446 20.7058 13.2224 20.1564C12.4001 19.607 11.7592 18.8261 11.3808 17.9125C11.0024 16.9988 10.9034 15.9935 11.0963 15.0236C11.2892 14.0537 11.7654 13.1628 12.4647 12.4635C13.1639 11.7642 14.0548 11.288 15.0248 11.0951C15.9947 10.9022 17 11.0012 17.9136 11.3796C18.8273 11.7581 19.6081 12.3989 20.1576 13.2212C20.707 14.0434 21.0002 15.0101 21.0002 15.999C21.0002 17.3251 20.4734 18.5969 19.5357 19.5346C18.5981 20.4723 17.3263 20.999 16.0002 20.999Z" fill="#333333"/>
</g>
<defs>
<clipPath id="clip0_5113:5001">
<rect width="32" height="32" fill="white"/>
</clipPath>
</defs>
</svg>
