<svg width="14" height="14" viewBox="0 0 14 14" fill="none" xmlns="http://www.w3.org/2000/svg">
<path d="M6.36843 12.35H0.0154419L0.579195 13.35H6.36843V12.35Z" fill="#EB4242"/>
<path d="M11.1608 1.85001L12.8608 2.85001L8.36076 10.85L6.56076 12.15L6.66076 9.95001L11.1608 1.85001ZM10.9608 0.650009C10.7608 0.650009 10.5608 0.750009 10.4608 0.950009L5.66076 9.55001L5.56076 12.65C5.56076 13.05 5.86076 13.35 6.26076 13.35C6.36076 13.35 6.56076 13.35 6.66076 13.25L9.16076 11.55L13.9608 2.95001C14.0608 2.75001 13.9608 2.45001 13.7608 2.25001L11.1608 0.750009C11.0608 0.650009 10.9608 0.650009 10.9608 0.650009Z" fill="#2B2B2B"/>
</svg>
