<svg width="128" height="128" viewBox="0 0 128 128" fill="none" xmlns="http://www.w3.org/2000/svg">
<path d="M22.6227 28.3998C22.6194 27.6444 22.7649 26.8958 23.0509 26.1967C23.337 25.4975 23.7579 24.8616 24.2896 24.3252C24.8214 23.7887 25.4537 23.3622 26.1503 23.0701C26.8469 22.778 27.5942 22.626 28.3495 22.6227H42.6667V10.6667H28.3495C23.6551 10.6799 19.1575 12.5541 15.8428 15.8783C12.528 19.2025 10.6667 23.7054 10.6667 28.3998V42.6667H22.6227V28.3998Z" fill="#63666A"/>
<path d="M105.377 28.3998C105.381 27.6444 105.235 26.8958 104.949 26.1967C104.663 25.4975 104.242 24.8616 103.71 24.3252C103.179 23.7887 102.546 23.3622 101.85 23.0701C101.153 22.778 100.406 22.626 99.6507 22.6227H85.3333V10.6667H99.6507C104.345 10.6799 108.843 12.5541 112.157 15.8783C115.472 19.2025 117.333 23.7054 117.333 28.3998V42.6667H105.377V28.3998Z" fill="#63666A"/>
<path d="M22.6227 99.6C22.6194 100.356 22.7649 101.104 23.0509 101.803C23.337 102.502 23.7579 103.138 24.2896 103.675C24.8214 104.211 25.4537 104.638 26.1503 104.93C26.8469 105.222 27.5942 105.374 28.3495 105.377H42.6667V117.333H28.3495C23.6551 117.32 19.1575 115.446 15.8428 112.122C12.528 108.797 10.6667 104.294 10.6667 99.6V85.3333H22.6227V99.6Z" fill="#63666A"/>
<path d="M105.377 99.6C105.381 100.356 105.235 101.104 104.949 101.803C104.663 102.502 104.242 103.138 103.71 103.675C103.179 104.211 102.546 104.638 101.85 104.93C101.153 105.222 100.406 105.374 99.6507 105.377H85.3333V117.333H99.6507C104.345 117.32 108.843 115.446 112.157 112.122C115.472 108.797 117.333 104.294 117.333 99.6V85.3333H105.377V99.6Z" fill="#63666A"/>
<path d="M56.0763 96L26.6667 67.5125L36.3831 58.0731L56.0475 77.1205L91.6171 42.6667L101.333 52.1065L56.0763 96Z" fill="#63666A"/>
</svg>
