<?xml version="1.0" encoding="UTF-8"?>
<svg width="16" height="16" viewBox="0 0 16 16" xmlns="http://www.w3.org/2000/svg">
<rect x="1" y="6" width="7" height="9" rx="1" fill="#656565"/>
<rect width="9" height="8" rx="1" fill="#656565"/>
<rect x="1" y="1" width="7" height="6" rx="1" fill="#70B9E8"/>
<rect x="3" y="8" width="3" height="1" fill="#FFE400"/>
<rect opacity="0.3" x="3" y="7" width="3" height="1" fill="#FFE400"/>
<rect x="2" y="9" width="1" height="1" fill="#E0E0E0"/>
<rect x="2" y="11" width="1" height="1" fill="#E0E0E0"/>
<rect x="2" y="13" width="1" height="1" fill="#E0E0E0"/>
<rect x="4" y="9" width="1" height="1" fill="#E0E0E0"/>
<rect x="4" y="11" width="1" height="1" fill="#E0E0E0"/>
<rect x="4" y="13" width="1" height="1" fill="#E0E0E0"/>
<rect x="6" y="9" width="1" height="1" fill="#E0E0E0"/>
<rect x="6" y="11" width="1" height="1" fill="#E0E0E0"/>
<rect x="6" y="13" width="1" height="1" fill="#E0E0E0"/>
<rect x="3" y="2" width="4" height="1" fill="#EBF5FC"/>
<rect x="4" y="4" width="3" height="1" fill="#EBF5FC"/>
<rect opacity="0.4" x="2" y="5" width="5" height="1" fill="#EBF5FC"/>
<path d="M10.4142 8L15.8477 13.4335L14.4335 14.8477L9 9.41421L10.4142 8Z" fill="#656565"/>
<path d="M15 10H16V15H15V10Z" fill="#656565"/>
<path d="M11 15V14H16V15H11Z" fill="#656565"/>
</svg>
