<svg width="52" height="52" viewBox="0 0 52 52" fill="none" xmlns="http://www.w3.org/2000/svg">
<path d="M34 6.17941C34 3.87119 35.9774 2 38.4167 2H41.5833C44.0226 2 46 3.87119 46 6.17941V45.8206C46 48.1288 44.0226 50 41.5833 50H38.4167C35.9774 50 34 48.1288 34 45.8206V6.17941Z" fill="#3F4044"/>
<path d="M7 6.17941C7 3.87119 8.9774 2 11.4167 2H14.5833C17.0226 2 19 3.87119 19 6.17941V45.8206C19 48.1288 17.0226 50 14.5833 50H11.4167C8.97741 50 7 48.1288 7 45.8206V6.17941Z" fill="#3F4044"/>
</svg>
