<svg width="32" height="32" viewBox="0 0 32 32" fill="none" xmlns="http://www.w3.org/2000/svg">
<path d="M16 30C23.732 30 30 23.732 30 16C30 8.26801 23.732 2 16 2C8.26801 2 2 8.26801 2 16C2 23.732 8.26801 30 16 30Z" fill="url(#paint0_linear_40_352)"/>
<path d="M11.4768 17.0232L13.1392 21.6207C13.1392 21.6207 13.3467 22.051 13.5689 22.051C13.7911 22.051 17.0993 18.6101 17.0993 18.6101L20.7771 11.5066L11.5359 15.8369L11.4768 17.0232Z" fill="#C8DAEA"/>
<path d="M13.679 18.2023L13.3601 21.5909C13.3601 21.5909 13.2268 22.6293 14.2646 21.5909C15.3024 20.5524 16.2964 19.752 16.2964 19.752L13.679 18.2023Z" fill="#A9C6D8"/>
<path d="M11.5066 17.1875L8.09057 16.0742C8.09057 16.0742 7.68274 15.9087 7.81361 15.5331C7.84039 15.4552 7.89518 15.3894 8.05709 15.2756C8.81431 14.7479 22.0693 9.98362 22.0693 9.98362C22.2603 9.91651 22.466 9.90201 22.6646 9.94162C22.7192 9.95857 22.7684 9.98969 22.8071 10.0318C22.8458 10.0739 22.8726 10.1256 22.8849 10.1814C22.9086 10.28 22.9184 10.3814 22.9141 10.4828C22.9141 10.5704 22.9026 10.652 22.8947 10.7798C22.8137 12.0818 20.399 21.8039 20.399 21.8039C20.399 21.8039 20.2547 22.3724 19.7367 22.3919C19.6092 22.3964 19.482 22.3751 19.3629 22.3293C19.2437 22.2835 19.1351 22.2141 19.0434 22.1253C18.0269 21.2506 14.5141 18.8901 13.738 18.3708C13.7212 18.3587 13.707 18.3432 13.6965 18.3253C13.686 18.3073 13.6794 18.2874 13.6772 18.2668C13.6662 18.212 13.7259 18.145 13.7259 18.145C13.7259 18.145 19.842 12.7081 20.0046 12.1378C20.0174 12.094 19.9699 12.0721 19.906 12.0909C19.4994 12.2407 12.4574 16.6872 11.68 17.1784C11.6237 17.1949 11.5643 17.1981 11.5066 17.1875Z" fill="white"/>
<defs>
<linearGradient id="paint0_linear_40_352" x1="16" y1="30" x2="16" y2="2" gradientUnits="userSpaceOnUse">
<stop stop-color="#1D93D2"/>
<stop offset="1" stop-color="#38B0E3"/>
</linearGradient>
</defs>
</svg>
