<?xml version="1.0" encoding="UTF-8"?>
<svg width="16" height="16" viewBox="0 0 16 16" xmlns="http://www.w3.org/2000/svg">
<path opacity="0.9" d="M14 9L11 10L6 8.5L2 10V15H14V9Z" fill="#687B87"/>
<path d="M3 11L6 10L10 11V14H3V11Z" fill="white"/>
<path d="M10 11H13V14H10V11Z" fill="white"/>
<path opacity="0.9" d="M11 1H2V9L6 7.5L10 8.5L14 7V4L11 1Z" fill="#687B87"/>
<path d="M3 2H10V8L6 7L3 8V2Z" fill="white"/>
<path d="M10 5H13V7L10 8V5Z" fill="white"/>
<path d="M8 5L4 5L4 4L8 4L8 5Z" fill="#8C9DAB"/>
<path d="M7 13L4 13L4 12L7 12L7 13Z" fill="#8C9DAB"/>
<circle cx="12" cy="12" r="4" fill="#E43742"/>
<rect x="9.40991" y="13.6525" width="6" height="1.32587" transform="rotate(-45 9.40991 13.6525)" fill="#E43742"/>
<circle cx="12" cy="12" r="3" fill="#FFFFC0"/>
<rect x="9.10938" y="13.9218" width="6.80585" height="1.37007" transform="rotate(-45 9.10938 13.9218)" fill="#E43742"/>
</svg>
