<svg width="120" height="120" xmlns="http://www.w3.org/2000/svg">
 <g>
  <rect fill="none" id="canvas_background" height="120" width="120" y="-1" x="-1"/>
 </g>
 <g>
  <title>Layer 1</title>
  <g id="svg_1" fill="#092896" transform="translate(0,120) scale(0.05,-0.05) ">
   <path id="svg_2" d="m525,2390c-125,-19 -246,-82 -339,-176c-71,-70 -117,-143 -154,-246l-27,-73l0,-690l0,-690l23,-70c35,-105 77,-172 161,-255c81,-81 167,-132 276,-166c56,-18 104,-19 725,-19c735,0 715,-2 855,65c167,80 289,233 336,420c20,80 20,1339 0,1420c-52,212 -208,383 -418,457l-78,28l-655,1c-360,1 -677,-2 -705,-6zm757,-331c54,-12 215,-87 342,-161c350,-203 396,-296 383,-778c-7,-249 -27,-321 -120,-427c-46,-53 -279,-203 -436,-281l-135,-67l-115,0c-111,0 -119,1 -191,35c-190,88 -424,235 -493,309c-61,65 -104,154 -119,243c-15,95 -15,442 0,538c14,83 54,174 104,234c44,53 272,201 433,282c166,82 234,97 347,73z"/>
   <path id="svg_3" d="m1104,1947c-69,-23 -255,-125 -385,-210c-137,-91 -175,-134 -206,-236c-25,-79 -25,-530 0,-605c21,-65 69,-134 120,-173c135,-102 415,-254 505,-274c80,-17 152,0 282,66c123,63 330,192 373,233c34,32 74,98 88,144c20,67 29,289 19,447c-11,163 -22,205 -77,284c-39,57 -292,217 -468,298c-82,37 -184,47 -251,26zm304,-301c32,-17 185,-171 201,-203c27,-52 17,-69 -121,-209c-81,-83 -139,-134 -151,-134c-25,0 -266,236 -274,268c-5,20 12,42 108,139c154,155 178,170 237,139zm-238,-434c33,-32 60,-65 60,-74c0,-8 -22,-36 -49,-61c-38,-35 -59,-47 -95,-52l-46,-7l0,-44c0,-50 -17,-64 -73,-64c-34,0 -35,-1 -42,-49c-9,-65 -29,-83 -91,-79l-49,3l-3,64l-3,65l121,121c92,92 119,125 114,139c-5,12 5,29 32,57c21,21 44,39 51,39c7,0 39,-26 73,-58z"/>
   <path id="svg_4" d="m1330,1445c-7,-8 -12,-26 -12,-40c0,-36 20,-55 56,-55c40,0 56,16 56,55c0,17 -5,36 -12,43c-17,17 -73,15 -88,-3z"/>
  </g>
 </g>
</svg>