<svg width="16" height="16" viewBox="0 0 16 16" fill="none" xmlns="http://www.w3.org/2000/svg">
<path d="M11.7066 9.67728L10.403 9.52844C10.09 9.49252 9.78205 9.60029 9.56137 9.82098L8.61705 10.7653C7.16465 10.0263 5.97399 8.84073 5.23496 7.3832L6.18441 6.43375C6.40509 6.21307 6.51286 5.90514 6.47694 5.59208L6.32811 4.29877C6.26652 3.78043 5.83029 3.39038 5.30681 3.39038H4.41894C3.83901 3.39038 3.35659 3.8728 3.39251 4.45274C3.66451 8.8356 7.16978 12.3357 11.5475 12.6077C12.1274 12.6437 12.6099 12.1612 12.6099 11.5813V10.6934C12.615 10.1751 12.225 9.73886 11.7066 9.67728V9.67728Z" fill="#009646"/>
</svg>
