<svg width="96" height="16" viewBox="0 0 96 16" fill="none" xmlns="http://www.w3.org/2000/svg">
<g clip-path="url(#clip0_3_2)">
<path d="M13 1H3V15H13V1Z" fill="#FAF0C1"/>
<path d="M12.5 1.5H3.5V14.5H12.5V1.5Z" stroke="#6F503A" stroke-opacity="0.35"/>
<path d="M9 4H5V5H9V4Z" fill="#D5CCA4"/>
<path d="M11 6H5V7H11V6Z" fill="#D5CCA4"/>
<path d="M11 8H5V9H11V8Z" fill="#D5CCA4"/>
<path d="M9 10H5V11H9V10Z" fill="#D5CCA4"/>
<path opacity="0.5" d="M6 4H5V9H6V4Z" fill="#00175C"/>
<path d="M11 12C11 11.4477 10.5523 11 10 11C9.44772 11 9 11.4477 9 12C9 12.5523 9.44772 13 10 13C10.5523 13 11 12.5523 11 12Z" fill="#00175C"/>
<mask id="mask0_3_2" style="mask-type:luminance" maskUnits="userSpaceOnUse" x="16" y="0" width="16" height="16">
<path d="M32 0H16V16H32V0Z" fill="white"/>
</mask>
<g mask="url(#mask0_3_2)">
<path d="M29 1H19V15H29V1Z" fill="#FAF0C1"/>
<path d="M28.5 1.5H19.5V14.5H28.5V1.5Z" stroke="#6F503A" stroke-opacity="0.35"/>
<path d="M25 4H21V5H25V4Z" fill="#D5CCA4"/>
<path d="M27 6H21V7H27V6Z" fill="#D5CCA4"/>
<path d="M27 8H21V9H27V8Z" fill="#D5CCA4"/>
<path d="M25 10H21V11H25V10Z" fill="#D5CCA4"/>
<path opacity="0.5" d="M22 4H21V9H22V4Z" fill="#00175C"/>
<path d="M27 12C27 11.4477 26.5523 11 26 11C25.4477 11 25 11.4477 25 12C25 12.5523 25.4477 13 26 13C26.5523 13 27 12.5523 27 12Z" fill="#00175C"/>
<path d="M27.0001 9.58398C25.1251 9.58398 23.4584 11.334 22.625 12.5007C23.625 14.3673 25.9584 15.2229 27.0001 15.4173C29.2919 15.4173 31.5087 12.6563 31.3753 12.5007C29.3752 10.1673 27.6252 9.58398 27.0001 9.58398Z" fill="white"/>
<path d="M26.9981 9C24.0186 9 22.167 11.9461 22.0878 12.1089C22.0301 12.2303 22 12.3642 22 12.5C22 12.6358 22.0301 12.7697 22.0878 12.8911C22.167 13.0539 24.0186 16 26.9981 16C29.9775 16 31.8292 13.0539 31.9125 12.8911C31.9702 12.7697 32.0003 12.6358 32.0003 12.5C32.0003 12.3642 31.9702 12.2303 31.9125 12.1089C31.8292 11.9461 29.9775 9 26.9981 9ZM26.9981 15.125C25.5954 15.125 24.0672 13.4879 23.5 12.5052C23.9748 11.6915 25.4929 9.875 26.9981 9.875C28.4008 9.875 29.9328 11.513 30.5 12.4948C30.0252 13.3085 28.5032 15.125 26.9981 15.125Z" fill="#333333"/>
<path d="M27 13.6673C27.6904 13.6673 28.2501 13.145 28.2501 12.5007C28.2501 11.8563 27.6904 11.334 27 11.334C26.3097 11.334 25.75 11.8563 25.75 12.5007C25.75 13.145 26.3097 13.6673 27 13.6673Z" fill="#333333"/>
</g>
<mask id="mask1_3_2" style="mask-type:luminance" maskUnits="userSpaceOnUse" x="32" y="0" width="16" height="16">
<path d="M48 0H32V16H48V0Z" fill="white"/>
</mask>
<g mask="url(#mask1_3_2)">
<path d="M47 0H37V14H47V0Z" fill="#FAF0C1"/>
<path d="M46.5 0.5H37.5V13.5H46.5V0.5Z" stroke="#6F503A" stroke-opacity="0.35"/>
<path d="M45 4H39V5H45V4Z" fill="#D5CCA4"/>
<path d="M45 6H39V7H45V6Z" fill="#D5CCA4"/>
<path d="M45 10C45 9.44772 44.5523 9 44 9C43.4477 9 43 9.44772 43 10C43 10.5523 43.4477 11 44 11C44.5523 11 45 10.5523 45 10Z" fill="#00175C"/>
<path d="M43 2H33V16H43V2Z" fill="#FAF0C1"/>
<path d="M42.5 2.5H33.5V15.5H42.5V2.5Z" stroke="#6F503A" stroke-opacity="0.35"/>
<path d="M39 5H35V6H39V5Z" fill="#D5CCA4"/>
<path d="M41 7H35V8H41V7Z" fill="#D5CCA4"/>
<path d="M41 9H35V10H41V9Z" fill="#D5CCA4"/>
<path d="M39 11H35V12H39V11Z" fill="#D5CCA4"/>
<path opacity="0.5" d="M36 5H35V10H36V5Z" fill="#00175C"/>
<path d="M41 13C41 12.4477 40.5523 12 40 12C39.4477 12 39 12.4477 39 13C39 13.5523 39.4477 14 40 14C40.5523 14 41 13.5523 41 13Z" fill="#00175C"/>
<path d="M43.0001 9.58398C41.1251 9.58398 39.4584 11.334 38.625 12.5007C39.625 14.3673 41.9584 15.2229 43.0001 15.4173C45.2919 15.4173 47.5087 12.6563 47.3753 12.5007C45.3752 10.1673 43.6252 9.58398 43.0001 9.58398Z" fill="white"/>
<path d="M42.9981 9C40.0186 9 38.167 11.9461 38.0878 12.1089C38.0301 12.2303 38 12.3642 38 12.5C38 12.6358 38.0301 12.7697 38.0878 12.8911C38.167 13.0539 40.0186 16 42.9981 16C45.9775 16 47.8292 13.0539 47.9125 12.8911C47.9702 12.7697 48.0003 12.6358 48.0003 12.5C48.0003 12.3642 47.9702 12.2303 47.9125 12.1089C47.8292 11.9461 45.9775 9 42.9981 9ZM42.9981 15.125C41.5954 15.125 40.0672 13.4879 39.5 12.5052C39.9748 11.6915 41.4929 9.875 42.9981 9.875C44.4008 9.875 45.9328 11.513 46.5 12.4948C46.0252 13.3085 44.5032 15.125 42.9981 15.125Z" fill="#333333"/>
<path d="M43 13.6673C43.6904 13.6673 44.2501 13.145 44.2501 12.5007C44.2501 11.8563 43.6904 11.334 43 11.334C42.3097 11.334 41.75 11.8563 41.75 12.5007C41.75 13.145 42.3097 13.6673 43 13.6673Z" fill="#333333"/>
</g>
<path d="M61 1H51V13C51 14.1046 51.8954 15 53 15H61V1Z" fill="#FAF0C1"/>
<path d="M60.5 1.5H51.5V13.5C51.5 14.0523 51.9477 14.5 52.5 14.5H60.5V1.5Z" stroke="#6F503A" stroke-opacity="0.35"/>
<path d="M57 4H53V5H57V4Z" fill="#D5CCA4"/>
<path d="M59 6H53V7H59V6Z" fill="#D5CCA4"/>
<path d="M59 8H53V9H59V8Z" fill="#D5CCA4"/>
<path d="M57 10H53V11H57V10Z" fill="#D5CCA4"/>
<path opacity="0.5" d="M54 4H53V9H54V4Z" fill="#00175C"/>
<path d="M59 12C59 11.4477 58.5523 11 58 11C57.4477 11 57 11.4477 57 12C57 12.5523 57.4477 13 58 13C58.5523 13 59 12.5523 59 12Z" fill="#00175C"/>
<path d="M52.4144 13.0004L53.8544 11.5614C53.9481 11.4676 54.0008 11.3405 54.0008 11.2079C54.0008 11.0753 53.9481 10.9482 53.8544 10.8544L53.1464 10.1464C53.0526 10.0527 52.9255 10 52.7929 10C52.6603 10 52.5332 10.0527 52.4394 10.1464L51.0004 11.5864L49.5614 10.1464C49.4676 10.0527 49.3405 10 49.2079 10C49.0753 10 48.9482 10.0527 48.8544 10.1464L48.1464 10.8544C48.0527 10.9482 48 11.0753 48 11.2079C48 11.3405 48.0527 11.4676 48.1464 11.5614L49.5864 13.0004L48.1464 14.4394C48.0527 14.5332 48 14.6603 48 14.7929C48 14.9255 48.0527 15.0526 48.1464 15.1464L48.8544 15.8544C48.9482 15.9481 49.0753 16.0008 49.2079 16.0008C49.3405 16.0008 49.4676 15.9481 49.5614 15.8544L51.0004 14.4144L52.4394 15.8544C52.5332 15.9481 52.6603 16.0008 52.7929 16.0008C52.9255 16.0008 53.0526 15.9481 53.1464 15.8544L53.8544 15.1464C53.9481 15.0526 54.0008 14.9255 54.0008 14.7929C54.0008 14.6603 53.9481 14.5332 53.8544 14.4394L52.4144 13.0004Z" fill="#D11919"/>
<mask id="mask2_3_2" style="mask-type:luminance" maskUnits="userSpaceOnUse" x="64" y="0" width="16" height="16">
<path d="M80 0H64V16H80V0Z" fill="white"/>
</mask>
<g mask="url(#mask2_3_2)">
<path d="M77 1H67V13C67 14.1046 67.8954 15 69 15H77V1Z" fill="#FAF0C1"/>
<path d="M76.5 1.5H67.5V13.5C67.5 14.0523 67.9477 14.5 68.5 14.5H76.5V1.5Z" stroke="#6F503A" stroke-opacity="0.35"/>
<path d="M73 4H69V5H73V4Z" fill="#D5CCA4"/>
<path d="M75 6H69V7H75V6Z" fill="#D5CCA4"/>
<path d="M75 8H69V9H75V8Z" fill="#D5CCA4"/>
<path d="M73 10H69V11H73V10Z" fill="#D5CCA4"/>
<path opacity="0.5" d="M70 4H69V9H70V4Z" fill="#00175C"/>
<path d="M75 12C75 11.4477 74.5523 11 74 11C73.4477 11 73 11.4477 73 12C73 12.5523 73.4477 13 74 13C74.5523 13 75 12.5523 75 12Z" fill="#00175C"/>
<path d="M75.0001 9.58398C73.1251 9.58398 71.4584 11.334 70.625 12.5007C71.625 14.3673 73.9584 15.2229 75.0001 15.4173C77.2919 15.4173 79.5087 12.6563 79.3753 12.5007C77.3752 10.1673 75.6252 9.58398 75.0001 9.58398Z" fill="white"/>
<path d="M74.9981 9C72.0186 9 70.167 11.9461 70.0878 12.1089C70.0301 12.2303 70 12.3642 70 12.5C70 12.6358 70.0301 12.7697 70.0878 12.8911C70.167 13.0539 72.0186 16 74.9981 16C77.9775 16 79.8292 13.0539 79.9125 12.8911C79.9702 12.7697 80.0003 12.6358 80.0003 12.5C80.0003 12.3642 79.9702 12.2303 79.9125 12.1089C79.8292 11.9461 77.9775 9 74.9981 9ZM74.9981 15.125C73.5954 15.125 72.0672 13.4879 71.5 12.5052C71.9748 11.6915 73.4929 9.875 74.9981 9.875C76.4008 9.875 77.9328 11.513 78.5 12.4948C78.0252 13.3085 76.5032 15.125 74.9981 15.125Z" fill="#333333"/>
<path d="M75 13.6673C75.6904 13.6673 76.2501 13.145 76.2501 12.5007C76.2501 11.8563 75.6904 11.334 75 11.334C74.3097 11.334 73.75 11.8563 73.75 12.5007C73.75 13.145 74.3097 13.6673 75 13.6673Z" fill="#333333"/>
<path d="M68.4144 13.0004L69.8544 11.5614C69.9481 11.4676 70.0008 11.3405 70.0008 11.2079C70.0008 11.0753 69.9481 10.9482 69.8544 10.8544L69.1464 10.1464C69.0526 10.0527 68.9255 10 68.7929 10C68.6603 10 68.5332 10.0527 68.4394 10.1464L67.0004 11.5864L65.5614 10.1464C65.4676 10.0527 65.3405 10 65.2079 10C65.0753 10 64.9482 10.0527 64.8544 10.1464L64.1464 10.8544C64.0527 10.9482 64 11.0753 64 11.2079C64 11.3405 64.0527 11.4676 64.1464 11.5614L65.5864 13.0004L64.1464 14.4394C64.0527 14.5332 64 14.6603 64 14.7929C64 14.9255 64.0527 15.0526 64.1464 15.1464L64.8544 15.8544C64.9482 15.9481 65.0753 16.0008 65.2079 16.0008C65.3405 16.0008 65.4676 15.9481 65.5614 15.8544L67.0004 14.4144L68.4394 15.8544C68.5332 15.9481 68.6603 16.0008 68.7929 16.0008C68.9255 16.0008 69.0526 15.9481 69.1464 15.8544L69.8544 15.1464C69.9481 15.0526 70.0008 14.9255 70.0008 14.7929C70.0008 14.6603 69.9481 14.5332 69.8544 14.4394L68.4144 13.0004Z" fill="#D11919"/>
</g>
<mask id="mask3_3_2" style="mask-type:luminance" maskUnits="userSpaceOnUse" x="80" y="0" width="16" height="16">
<path d="M96 0H80V16H96V0Z" fill="white"/>
</mask>
<g mask="url(#mask3_3_2)">
<path d="M95 0H85V14H95V0Z" fill="#FAF0C1"/>
<path d="M94.5 0.5H85.5V13.5H94.5V0.5Z" stroke="#6F503A" stroke-opacity="0.35"/>
<path d="M93 4H87V5H93V4Z" fill="#D5CCA4"/>
<path d="M93 6H87V7H93V6Z" fill="#D5CCA4"/>
<path d="M93 10C93 9.44772 92.5523 9 92 9C91.4477 9 91 9.44772 91 10C91 10.5523 91.4477 11 92 11C92.5523 11 93 10.5523 93 10Z" fill="#00175C"/>
<path d="M91 2H81V14C81 15.1046 81.8954 16 83 16H91V2Z" fill="#FAF0C1"/>
<path d="M90.5 2.5H81.5V14.5C81.5 15.0523 81.9477 15.5 82.5 15.5H90.5V2.5Z" stroke="#6F503A" stroke-opacity="0.35"/>
<path d="M87 5H83V6H87V5Z" fill="#D5CCA4"/>
<path d="M89 7H83V8H89V7Z" fill="#D5CCA4"/>
<path d="M89 9H83V10H89V9Z" fill="#D5CCA4"/>
<path d="M87 11H83V12H87V11Z" fill="#D5CCA4"/>
<path opacity="0.5" d="M84 5H83V10H84V5Z" fill="#00175C"/>
<path d="M89 13C89 12.4477 88.5523 12 88 12C87.4477 12 87 12.4477 87 13C87 13.5523 87.4477 14 88 14C88.5523 14 89 13.5523 89 13Z" fill="#00175C"/>
<path d="M91.0001 9.58398C89.1251 9.58398 87.4584 11.334 86.625 12.5007C87.625 14.3673 89.9584 15.2229 91.0001 15.4173C93.2919 15.4173 95.5087 12.6563 95.3753 12.5007C93.3752 10.1673 91.6252 9.58398 91.0001 9.58398Z" fill="white"/>
<path d="M90.9981 9C88.0186 9 86.167 11.9461 86.0878 12.1089C86.0301 12.2303 86 12.3642 86 12.5C86 12.6358 86.0301 12.7697 86.0878 12.8911C86.167 13.0539 88.0186 16 90.9981 16C93.9775 16 95.8292 13.0539 95.9125 12.8911C95.9702 12.7697 96.0003 12.6358 96.0003 12.5C96.0003 12.3642 95.9702 12.2303 95.9125 12.1089C95.8292 11.9461 93.9775 9 90.9981 9ZM90.9981 15.125C89.5954 15.125 88.0672 13.4879 87.5 12.5052C87.9748 11.6915 89.4929 9.875 90.9981 9.875C92.4008 9.875 93.9328 11.513 94.5 12.4948C94.0252 13.3085 92.5032 15.125 90.9981 15.125Z" fill="#333333"/>
<path d="M91 13.6673C91.6904 13.6673 92.2501 13.145 92.2501 12.5007C92.2501 11.8563 91.6904 11.334 91 11.334C90.3097 11.334 89.75 11.8563 89.75 12.5007C89.75 13.145 90.3097 13.6673 91 13.6673Z" fill="#333333"/>
<path d="M84.4144 13.0004L85.8544 11.5614C85.9481 11.4676 86.0008 11.3405 86.0008 11.2079C86.0008 11.0753 85.9481 10.9482 85.8544 10.8544L85.1464 10.1464C85.0526 10.0527 84.9255 10 84.7929 10C84.6603 10 84.5332 10.0527 84.4394 10.1464L83.0004 11.5864L81.5614 10.1464C81.4676 10.0527 81.3405 10 81.2079 10C81.0753 10 80.9482 10.0527 80.8544 10.1464L80.1464 10.8544C80.0527 10.9482 80 11.0753 80 11.2079C80 11.3405 80.0527 11.4676 80.1464 11.5614L81.5864 13.0004L80.1464 14.4394C80.0527 14.5332 80 14.6603 80 14.7929C80 14.9255 80.0527 15.0526 80.1464 15.1464L80.8544 15.8544C80.9482 15.9481 81.0753 16.0008 81.2079 16.0008C81.3405 16.0008 81.4676 15.9481 81.5614 15.8544L83.0004 14.4144L84.4394 15.8544C84.5332 15.9481 84.6603 16.0008 84.7929 16.0008C84.9255 16.0008 85.0526 15.9481 85.1464 15.8544L85.8544 15.1464C85.9481 15.0526 86.0008 14.9255 86.0008 14.7929C86.0008 14.6603 85.9481 14.5332 85.8544 14.4394L84.4144 13.0004Z" fill="#D11919"/>
</g>
</g>
<defs>
<clipPath id="clip0_3_2">
<rect width="96" height="16" fill="white"/>
</clipPath>
</defs>
</svg>
