<svg width="32" height="32" viewBox="0 0 32 32" fill="none" xmlns="http://www.w3.org/2000/svg">
<path d="M10.0322 8C11.9652 8 13.5322 6.433 13.5322 4.5C13.5322 2.567 11.9652 1 10.0322 1C8.09923 1 6.53223 2.567 6.53223 4.5C6.53223 6.433 8.09923 8 10.0322 8Z" fill="#333333"/>
<path d="M3.716 23.207L0 30.107L2.182 31.284L6.117 24.784C5.17813 24.5078 4.34245 23.9589 3.716 23.207V23.207Z" fill="#333333"/>
<path d="M11.5092 12.372C11.5258 12.2129 11.5295 12.0527 11.5202 11.893L22.5322 11.5V9L8.53219 9.016C7.80295 9.01397 7.09805 9.27824 6.54989 9.7592C6.00173 10.2402 5.64801 10.9047 5.55519 11.628L4.55519 19.628C4.4634 20.381 4.66116 21.1407 5.10842 21.7534C5.55568 22.3661 6.21903 22.786 6.96419 22.928L12.5322 23.788L13.0322 31H15.5322V22.5C15.532 22.1416 15.4035 21.7952 15.17 21.5233C14.9365 21.2515 14.6134 21.0722 14.2592 21.018L10.4942 20.441C10.4942 20.417 10.5062 20.396 10.5092 20.372L11.5092 12.372Z" fill="#333333"/>
<path d="M28.5 5.5H21.5C20.3954 5.5 19.5 6.39543 19.5 7.5V10.5C19.5 11.6046 20.3954 12.5 21.5 12.5H28.5C29.6046 12.5 30.5 11.6046 30.5 10.5V7.5C30.5 6.39543 29.6046 5.5 28.5 5.5Z" fill="#333333" stroke="#333333" stroke-miterlimit="10" stroke-linecap="round" stroke-linejoin="round"/>
<rect x="19" y="14" width="12" height="8" rx="2" fill="#333333"/>
<rect x="19" y="23" width="12" height="8" rx="2" fill="#333333"/>
</svg>
