<svg width="52" height="52" viewBox="0 0 52 52" fill="none" xmlns="http://www.w3.org/2000/svg">
<circle cx="26" cy="26" r="26" fill="#CECFD6"/>
<path d="M35.0331 34.7941V38.2353H17.5404V35.278L26.0358 26.0119C26.9678 24.9605 27.7026 24.0524 28.2403 23.2877C28.778 22.523 29.1544 21.8359 29.3695 21.2266C29.5965 20.6052 29.71 20.0018 29.71 19.4164C29.71 18.5919 29.5547 17.869 29.244 17.2477C28.9453 16.6144 28.5032 16.1186 27.9177 15.7601C27.3322 15.3897 26.6213 15.2045 25.7849 15.2045C24.8171 15.2045 24.0046 15.4136 23.3474 15.8318C22.6902 16.25 22.1944 16.8295 21.8598 17.5703C21.5252 18.2992 21.358 19.1356 21.358 20.0795H17.0386C17.0386 18.562 17.3851 17.176 18.0781 15.9214C18.7711 14.6549 19.7748 13.6512 21.0891 12.9104C22.4035 12.1576 23.9866 11.7812 25.8387 11.7812C27.5832 11.7812 29.0648 12.074 30.2835 12.6595C31.5023 13.2449 32.4283 14.0754 33.0616 15.1507C33.7068 16.2261 34.0294 17.4986 34.0294 18.9683C34.0294 19.7808 33.8979 20.5873 33.6351 21.3879C33.3722 22.1884 32.9958 22.989 32.5059 23.7895C32.028 24.5781 31.4604 25.3727 30.8033 26.1733C30.1461 26.9619 29.4232 27.7624 28.6346 28.5749L22.9889 34.7941H35.0331Z" fill="#6B7782"/>
</svg>
