<svg width="32" height="32" viewBox="0 0 32 32" fill="none" xmlns="http://www.w3.org/2000/svg">
<path d="M12.5 19.5V22.5" stroke="black" stroke-linecap="round" stroke-linejoin="round"/>
<path d="M24.6276 17.9777L16.5 16.5V10.5C16.5 9.39543 15.6046 8.5 14.5 8.5C13.3954 8.5 12.5 9.39543 12.5 10.5V16.8983V19.5H10.5C9.39543 19.5 8.5 20.3954 8.5 21.5V24.3953C8.5 25.7578 8.9637 27.0797 9.81483 28.1436L12.5 31.5H25.5L27.0561 21.3855C27.3032 19.7794 26.2265 18.2684 24.6276 17.9777Z" stroke="black" stroke-linecap="round" stroke-linejoin="round"/>
<path d="M14.5 1.5V3.5" stroke="black" stroke-linecap="round" stroke-linejoin="round"/>
<path d="M20.8639 4.13672L19.4497 5.55093" stroke="black" stroke-linecap="round" stroke-linejoin="round"/>
<path d="M23.5 10.5H21.5" stroke="black" stroke-linecap="round" stroke-linejoin="round"/>
<path d="M8.13623 4.13672L9.55044 5.55093" stroke="black" stroke-linecap="round" stroke-linejoin="round"/>
<path d="M5.5 10.5H7.5" stroke="black" stroke-linecap="round" stroke-linejoin="round"/>
</svg>
