<svg width="32" height="32" viewBox="0 0 32 32" fill="none" xmlns="http://www.w3.org/2000/svg">
<path d="M22.5 10.5V7.5C22.4953 5.91016 21.8616 4.3868 20.7374 3.2626C19.6132 2.13841 18.0898 1.50475 16.5 1.5V1.5C14.9102 1.50475 13.3868 2.13841 12.2626 3.2626C11.1384 4.3868 10.5047 5.91016 10.5 7.5V10.5" stroke="black" stroke-linecap="round" stroke-linejoin="round"/>
<path d="M25.5 14.5H7.5C5.84315 14.5 4.5 15.8431 4.5 17.5V28.5C4.5 30.1569 5.84315 31.5 7.5 31.5H25.5C27.1569 31.5 28.5 30.1569 28.5 28.5V17.5C28.5 15.8431 27.1569 14.5 25.5 14.5Z" stroke="black" stroke-linecap="round" stroke-linejoin="round"/>
<path d="M16.5 24.5V27.5" stroke="black" stroke-linecap="round" stroke-linejoin="round"/>
<path d="M16.5 24.5C18.1569 24.5 19.5 23.1569 19.5 21.5C19.5 19.8431 18.1569 18.5 16.5 18.5C14.8431 18.5 13.5 19.8431 13.5 21.5C13.5 23.1569 14.8431 24.5 16.5 24.5Z" stroke="black" stroke-linecap="round" stroke-linejoin="round"/>
</svg>
