<?xml version="1.0" encoding="UTF-8"?>
<svg width="64" height="16" viewBox="0 0 64 16" xmlns="http://www.w3.org/2000/svg">
<path opacity="0.9" d="M27 1H18V15H30V4L27 1Z" fill="#687B87"/>
<path d="M19 2H26V14H19V2Z" fill="white"/>
<path d="M26 5H29V14H26V5Z" fill="white"/>
<path d="M23 7L20 7L20 6L23 6L23 7Z" fill="#8C9DAB"/>
<path d="M24 5L20 5L20 4L24 4L24 5Z" fill="#8C9DAB"/>
<circle cx="28" cy="12" r="4" fill="#E43742"/>
<rect x="25" y="11" width="6" height="2" fill="white"/>
<path opacity="0.9" d="M43 1H34V15H46V4L43 1Z" fill="#3298CC"/>
<path d="M35 2H42V14H35V2Z" fill="white"/>
<path d="M42 5H45V14H42V5Z" fill="white"/>
<path d="M39 7L36 7L36 6L39 6L39 7Z" fill="#00CBFF"/>
<path d="M40 5L36 5L36 4L40 4L40 5Z" fill="#00CBFF"/>
<path d="M40 8H48V16H41L40 15V8Z" fill="#5E84AE"/>
<path d="M41 9H47V15H42L41 14V9Z" fill="#92BBE8"/>
<rect x="42" y="9" width="4" height="3" fill="#E3ECF5"/>
<rect opacity="0.7" width="4" height="1" transform="matrix(1 0 0 -1 42 9)" fill="#E3ECF5"/>
<path d="M42.5 13H45.5V15H42.5V13Z" fill="#DAECFC"/>
<rect x="43" y="14" width="1" height="1" fill="#2A3844"/>
<rect opacity="0.3" x="43" y="10" width="2" height="1" fill="#2B537C"/>
<path opacity="0.9" d="M59 1H50V15H62V4L59 1Z" fill="#3298CC"/>
<path d="M51 2H58V14H51V2Z" fill="white"/>
<path d="M58 5H61V14H58V5Z" fill="white"/>
<path d="M55 7L52 7L52 6L55 6L55 7Z" fill="#00CBFF"/>
<path d="M56 5L52 5L52 4L56 4L56 5Z" fill="#00CBFF"/>
<rect opacity="0.5" x="57" y="11" width="5" height="4" fill="white"/>
<path d="M58 16L53.5 12V11L58 13L64 9V10L58 16Z" fill="#287900"/>
<path d="M58 15L53.5 11L55 9L58 12L62.5 7.5L64 9L58 15Z" fill="#33C60B"/>
</svg>
