<svg width="32" height="32" viewBox="0 0 32 32" fill="none" xmlns="http://www.w3.org/2000/svg">
<path d="M32 26H9.899C9.5 24.044 7.956 22.5 6 22.101V1C6 0.447 5.553 0 5 0H0V2H4V22.101C1.721 22.566 0 24.586 0 27C0 29.757 2.243 32 5 32C7.414 32 9.434 30.279 9.899 28H32V26ZM5 30C3.346 30 2 28.654 2 27C2 25.346 3.346 24 5 24C6.654 24 8 25.346 8 27C8 28.654 6.654 30 5 30Z" fill="#333333"/>
<path d="M10 23H28C28.553 23 29 22.553 29 22V7C29 6.447 28.553 6 28 6H10C9.447 6 9 6.447 9 7V22C9 22.553 9.447 23 10 23Z" fill="#333333"/>
</svg>
