<svg width="16" height="16" viewBox="0 0 16 16" fill="none" xmlns="http://www.w3.org/2000/svg">
<path d="M13.6333 14.5H2.36667C1.88827 14.5 1.5 14.1267 1.5 13.6667V5.33333C1.5 4.87333 2.36667 4.5 2.36667 4.5L8 0.5L13.6333 4.5C13.6333 4.5 14.5 4.87333 14.5 5.33333V13.6667C14.5 14.1267 14.1117 14.5 13.6333 14.5Z" fill="#F9EFB2"/>
<path d="M13.6333 14.5H2.36667C1.88827 14.5 1.5 14.1267 1.5 13.6667V5.33333C1.5 4.87333 2.36667 4.5 2.36667 4.5L8 0.5L13.6333 4.5C13.6333 4.5 14.5 4.87333 14.5 5.33333V13.6667C14.5 14.1267 14.1117 14.5 13.6333 14.5Z" fill="url(#paint0_linear)"/>
<path d="M13.6333 14.5H2.36667C1.88827 14.5 1.5 14.1267 1.5 13.6667V5.33333C1.5 4.87333 2.36667 4.5 2.36667 4.5L8 0.5L13.6333 4.5C13.6333 4.5 14.5 4.87333 14.5 5.33333V13.6667C14.5 14.1267 14.1117 14.5 13.6333 14.5Z" stroke="#BD9730" stroke-miterlimit="10" stroke-linecap="round" stroke-linejoin="round"/>
<path d="M2 14L8 9L14 14M2 5L6 10M14 5L9.5 10" stroke="#BD9730" stroke-miterlimit="10" stroke-linecap="round" stroke-linejoin="round"/>
<defs>
<linearGradient id="paint0_linear" x1="8" y1="0.5" x2="8" y2="14.5" gradientUnits="userSpaceOnUse">
<stop offset="0" stop-color="white"/>
<stop offset="1" stop-color="#F4DE88"/>
</linearGradient>
</defs>
</svg>
