<svg width="19" height="19" viewBox="0 0 19 19" fill="none" xmlns="http://www.w3.org/2000/svg">
<path fill-rule="evenodd" clip-rule="evenodd" d="M8.33406 2.85884C8.37383 4.27038 8.20504 4.73903 8.00039 4.98145C7.74146 5.28822 7.29843 5.03158 6.73812 4.25024C6.41735 3.80293 6.25328 3.44479 6.10735 2.87356C6.03923 2.60685 5.97242 2.3886 5.9589 2.3886C5.9301 2.3886 5.82417 3.06175 5.76991 3.58948C5.74912 3.79189 5.73132 4.2887 5.73035 4.69351C5.72697 6.13395 5.64556 6.84347 5.48362 6.84347C5.34593 6.84347 4.75317 6.27391 4.12205 5.53517C3.95332 5.33765 3.81131 5.18076 3.80653 5.18657C3.80171 5.19238 3.8302 5.65034 3.8698 6.20429C3.99167 7.90865 4.14514 8.95418 4.35526 9.51131C4.47189 9.82056 4.47927 10.0782 4.37314 10.1348C4.09536 10.283 3.54041 10.022 2.84047 9.41412C2.20686 8.86381 2 8.73256 2 8.88089C2 8.91486 2.11282 9.29403 2.25074 9.72344C2.38866 10.1529 2.62362 10.9141 2.77289 11.4151C3.09898 12.5094 3.2048 12.8091 3.40882 13.2159C3.90451 14.2043 4.49664 14.706 5.5948 15.0682C5.94911 15.185 7.23415 15.4925 7.29023 15.4739C7.31063 15.4671 7.11236 15.2164 6.84965 14.9167C6.08046 14.0392 5.64676 13.379 5.51739 12.8887C5.42265 12.5295 5.49986 12.5178 6.07203 12.8048C6.88576 13.2128 7.36294 13.2926 7.36294 13.0206C7.36294 12.8865 7.31312 12.7982 7.06623 12.4949C6.8083 12.178 6.57284 11.6843 6.4917 11.2903C6.4247 10.9647 6.40593 10.0823 6.46648 10.1039C6.48637 10.111 6.88956 10.4805 7.36244 10.9249C7.83531 11.3694 8.22711 11.7268 8.23306 11.7191C8.25533 11.6903 8.84133 8.94462 8.87677 8.70289C8.89705 8.5644 8.9414 8.18167 8.97532 7.8524C9.00921 7.52313 9.04683 7.24421 9.05891 7.23259C9.09945 7.19358 9.62793 7.78937 9.8412 8.1145C10.2936 8.80411 10.4534 9.34137 10.6253 10.751C10.6886 11.2703 10.7456 11.7 10.7519 11.7059C10.7582 11.7117 11.1368 11.3668 11.5933 10.9393L12.4232 10.1621L12.4054 10.798C12.3839 11.5589 12.3195 11.8315 12.0012 12.5077C11.8834 12.7578 11.7931 13.0013 11.8 13.05C11.8189 13.1824 11.9896 13.181 12.5148 13.0441C12.8512 12.9564 13.0175 12.8907 13.1582 12.79C13.2625 12.7153 13.358 12.6542 13.3704 12.6542C13.405 12.6542 12.9366 13.5284 12.7377 13.8352C12.6182 14.0196 12.273 14.3911 11.6625 14.9925C11.168 15.4796 10.7983 15.868 10.8411 15.8557C10.8838 15.8433 11.1724 15.773 11.4823 15.6993C12.1569 15.5391 12.4874 15.4242 13.0576 15.1521C13.6171 14.8851 14.1484 14.528 14.3983 14.2511C14.7313 13.8823 15.059 13.3748 15.2377 12.9517C15.502 12.3258 15.88 10.8468 15.9721 10.0781L16 9.84566L15.8887 9.94251C15.8275 9.99577 15.6635 10.1551 15.5243 10.2965C15.3203 10.5039 15.2305 10.5657 15.0602 10.616C14.7783 10.6995 14.6614 10.6948 14.5339 10.5949C14.4367 10.5187 14.4287 10.4931 14.4441 10.3082C14.4546 10.1821 14.5136 9.99751 14.6 9.82048C14.9285 9.14764 15.0211 8.61174 15.0471 7.23085C15.0581 6.64494 15.0603 6.13069 15.0518 6.08808C15.0407 6.03241 14.9853 6.10598 14.8551 6.34929C14.6384 6.7543 14.3865 7.08922 14.1348 7.30678C13.9489 7.46746 13.4505 7.73444 13.3365 7.73444C13.2053 7.73444 13.1543 7.35717 13.1162 6.10745C13.0721 4.65838 12.9734 4.07487 12.6721 3.4821C12.6154 3.37069 12.5559 3.27958 12.5398 3.27958C12.5237 3.27958 12.4643 3.47571 12.4079 3.71538C12.2768 4.27228 12.098 4.76134 11.9167 5.05877C11.7548 5.32432 11.0263 6.22366 10.9731 6.22366C10.9538 6.22366 10.9382 5.91147 10.9382 5.52475C10.9382 5.04649 10.9192 4.73155 10.8778 4.52725C10.7522 3.90659 10.6957 3.79622 10.3696 3.22108C9.91132 2.41295 9.91615 2.68867 9.45652 1.87754C9.35242 1.69379 8.23913 -0.510922 8.33406 2.85884ZM3.72613 16.9121C3.71719 16.921 3.70992 17.1694 3.70992 17.4641V18H9.40319H15.0965V17.448V16.896H9.41936C6.297 16.896 3.73503 16.9033 3.72613 16.9121Z" fill="#FD0B36"/>
</svg>
