<?xml version="1.0" encoding="UTF-8"?>
<svg width="16" height="16" viewBox="0 0 16 16" xmlns="http://www.w3.org/2000/svg">
<path opacity="0.9" d="M11 1H2V15H14V4L11 1Z" fill="#3298CC"/>
<path d="M3 2H10V14H3V2Z" fill="white"/>
<path d="M10 5H13V14H10V5Z" fill="white"/>
<path d="M7 7L4 7L4 6L7 6L7 7Z" fill="#00CBFF"/>
<path d="M8 5L4 5L4 4L8 4L8 5Z" fill="#00CBFF"/>
<rect opacity="0.5" x="9" y="11" width="5" height="4" fill="white"/>
<path d="M10 16L5.5 12V11L10 13L16 9V10L10 16Z" fill="#287900"/>
<path d="M10 15L5.5 11L7 9L10 12L14.5 7.5L16 9L10 15Z" fill="#33C60B"/>
</svg>
