<svg width="16" height="16" viewBox="0 0 16 16" fill="none" xmlns="http://www.w3.org/2000/svg">
<g clip-path="url(#clip0_7_843)">
<path d="M2.75 5C3.7165 5 4.5 4.2165 4.5 3.25C4.5 2.2835 3.7165 1.5 2.75 1.5C1.7835 1.5 1 2.2835 1 3.25C1 4.2165 1.7835 5 2.75 5Z" fill="#6E6E6E"/>
<path d="M13.25 5C14.2165 5 15 4.2165 15 3.25C15 2.2835 14.2165 1.5 13.25 1.5C12.2835 1.5 11.5 2.2835 11.5 3.25C11.5 4.2165 12.2835 5 13.25 5Z" fill="#6E6E6E"/>
<path d="M13.5001 6C12.0991 6.131 10.8271 6.874 10.0261 8.032C9.8681 8.219 9.6821 8.377 9.5061 8.546C9.8391 8.939 10.0501 9.443 10.0501 10C10.0501 10.025 10.0431 10.048 10.0431 10.073C10.3941 9.815 10.7241 9.53 11.0011 9.191V14C11.0011 14.552 11.4491 15 12.0011 15H15.0011C15.5531 15 16.0011 14.552 16.0011 14V8.5C16.0011 7.119 14.8821 6 13.5011 6H13.5001Z" fill="#6E6E6E"/>
<path d="M7.8 9.25C7.107 9.25 6.656 8.787 5.977 8.032C5.176 6.874 3.903 6.13 2.5 6C1.119 6 0 7.119 0 8.5V14C0 14.552 0.448 15 1 15H4C4.552 15 5 14.552 5 14V9.191C5.65 10.107 6.679 10.68 7.8 10.75C8.214 10.75 8.55 10.414 8.55 10C8.55 9.586 8.214 9.25 7.8 9.25Z" fill="#6E6E6E"/>
</g>
<defs>
<clipPath id="clip0_7_843">
<rect width="16" height="16" fill="white"/>
</clipPath>
</defs>
</svg>
