<svg width="32" height="32" viewBox="0 0 32 32" fill="none" xmlns="http://www.w3.org/2000/svg">
<path d="M2 30L3.97784 22.8102C2.75786 20.7062 2.1159 18.3191 2.1169 15.8738C2.11998 8.22375 8.37411 2 16.0585 2C19.7879 2.00148 23.2884 3.4465 25.9205 6.06902C28.5527 8.69154 30.0014 12.1775 30 15.8848C29.9969 23.5349 23.7422 29.7594 16.0586 29.7594H16.0529C13.7195 29.7585 11.4269 29.176 9.39062 28.0706L2 30Z" fill="url(#paint0_linear_40_337)"/>
<path fill-rule="evenodd" clip-rule="evenodd" d="M12.1021 9.22724C11.7805 8.45464 11.4537 8.55918 11.2104 8.54706C10.9795 8.53557 10.715 8.53314 10.4508 8.53314C10.1866 8.53314 9.75724 8.6323 9.39395 9.02892C9.03067 9.42556 8.00684 10.3841 8.00684 12.3342C8.00684 14.2844 9.42698 16.1684 9.62516 16.4328C9.82331 16.6973 12.4198 20.6992 16.3956 22.4154C17.3412 22.8236 18.0795 23.0674 18.655 23.2501C19.6045 23.5515 20.4685 23.509 21.1514 23.407C21.9128 23.2933 23.4962 22.4485 23.8265 21.523C24.1568 20.5975 24.1568 19.8042 24.0577 19.639C23.9586 19.4737 23.6944 19.3746 23.2981 19.1762C22.9018 18.9779 20.9532 18.0194 20.5899 17.8872C20.2266 17.755 19.9624 17.6889 19.6982 18.0855C19.434 18.4821 18.6745 19.3746 18.4432 19.639C18.2121 19.9034 17.9809 19.9365 17.5846 19.7381C17.1882 19.5398 15.9112 19.1214 14.3974 17.7716C13.2192 16.7211 12.4237 15.4235 12.1925 15.0269C11.9614 14.6302 12.1679 14.4158 12.3664 14.2183C12.5446 14.0408 12.7627 13.7555 12.9608 13.5242C13.159 13.2928 13.2251 13.1275 13.3571 12.8631C13.4893 12.5987 13.4232 12.3673 13.3241 12.169C13.2251 11.9707 12.4324 10.0205 12.1021 9.22724Z" fill="white"/>
<defs>
<linearGradient id="paint0_linear_40_337" x1="16" y1="2" x2="16" y2="30" gradientUnits="userSpaceOnUse">
<stop stop-color="#59D064"/>
<stop offset="1" stop-color="#27B43E"/>
</linearGradient>
</defs>
</svg>
