<svg width="32" height="32" viewBox="0 0 32 32" fill="none" xmlns="http://www.w3.org/2000/svg">
<path d="M30.5771 9.90587L16.0001 3.09987L1.42315 9.90587L0.577148 8.09387L15.5771 1.09387C15.7096 1.03204 15.854 1 16.0001 1C16.1463 1 16.2907 1.03204 16.4231 1.09387L31.4231 8.09387L30.5771 9.90587Z" fill="#333333"/>
<path d="M21 8H17V12H15V8H11C10.7348 8 10.4804 8.10536 10.2929 8.29289C10.1054 8.48043 10 8.73478 10 9V18C10 18.2652 10.1054 18.5196 10.2929 18.7071C10.4804 18.8946 10.7348 19 11 19H21C21.2652 19 21.5196 18.8946 21.7071 18.7071C21.8946 18.5196 22 18.2652 22 18V9C22 8.73478 21.8946 8.48043 21.7071 8.29289C21.5196 8.10536 21.2652 8 21 8Z" fill="#333333"/>
<path d="M28 21H24V25H22V21H18C17.7348 21 17.4804 21.1054 17.2929 21.2929C17.1054 21.4804 17 21.7348 17 22V31C17 31.2652 17.1054 31.5196 17.2929 31.7071C17.4804 31.8946 17.7348 32 18 32H28C28.2652 32 28.5196 31.8946 28.7071 31.7071C28.8946 31.5196 29 31.2652 29 31V22C29 21.7348 28.8946 21.4804 28.7071 21.2929C28.5196 21.1054 28.2652 21 28 21Z" fill="#333333"/>
<path d="M14 21H10V25H8V21H4C3.73478 21 3.48043 21.1054 3.29289 21.2929C3.10536 21.4804 3 21.7348 3 22V31C3 31.2652 3.10536 31.5196 3.29289 31.7071C3.48043 31.8946 3.73478 32 4 32H14C14.2652 32 14.5196 31.8946 14.7071 31.7071C14.8946 31.5196 15 31.2652 15 31V22C15 21.7348 14.8946 21.4804 14.7071 21.2929C14.5196 21.1054 14.2652 21 14 21Z" fill="#333333"/>
</svg>
