<svg width="176" height="16" viewBox="0 0 176 16" fill="none" xmlns="http://www.w3.org/2000/svg">
<g clip-path="url(#clip0)">
<path d="M28.978 1H26.212L20 7.504V1H19H18V15H20V10.401L21.805 8.511L26.132 15H28.535L23.221 7.029L28.978 1Z" fill="#009646"/>
<path d="M88 1H86.2363L82.2753 5.1472V1H81.6376H81V9.92694H82.2753V6.99444L83.4262 5.78931L86.1853 9.92694H87.7175L84.3291 4.84432L88 1Z" fill="#009646"/>
<path d="M104 1H102.236L98.2753 5.1472V1H97.6376H97V9.92694H98.2753V6.99444L99.4262 5.78931L102.185 9.92694H103.718L100.329 4.84432L104 1Z" fill="#D54F3E"/>
<g opacity="0.5">
<path d="M120 1H118.236L114.275 5.1472V1H113.638H113V9.92694H114.275V6.99444L115.426 5.78931L118.185 9.92694H119.718L116.329 4.84432L120 1Z" fill="#333333"/>
</g>
<path d="M136 1H134.236L130.275 5.1472V1H129.638H129V9.92694H130.275V6.99444L131.426 5.78931L134.185 9.92694H135.718L132.329 4.84432L136 1Z" fill="#D54F3E"/>
<g opacity="0.5">
<path d="M152 1H150.236L146.275 5.1472V1H145.638H145V9.92694H146.275V6.99444L147.426 5.78931L150.185 9.92694H151.718L148.329 4.84432L152 1Z" fill="#333333"/>
</g>
<g opacity="0.5">
<path d="M168 1H166.236L162.275 5.1472V1H161.638H161V9.92694H162.275V6.99444L163.426 5.78931L166.185 9.92694H167.718L164.329 4.84432L168 1Z" fill="#333333"/>
</g>
<path d="M96.2731 4.72461H94.4406L90.325 9.03364V4.72461H89.6625H89V13.9999H90.325V10.953L91.5209 9.7008L94.3876 13.9999H95.9796L92.459 8.71894L96.2731 4.72461Z" fill="#009646"/>
<path d="M112.273 4.72461H110.441L106.325 9.03364V4.72461H105.663H105V13.9999H106.325V10.953L107.521 9.7008L110.388 13.9999H111.98L108.459 8.71894L112.273 4.72461Z" fill="#D54F3E"/>
<g opacity="0.5">
<path d="M128.273 4.72461H126.441L122.325 9.03364V4.72461H121.663H121V13.9999H122.325V10.953L123.521 9.7008L126.388 13.9999H127.98L124.459 8.71894L128.273 4.72461Z" fill="#333333"/>
</g>
<path d="M144.273 4.72461H142.441L138.325 9.03364V4.72461H137.663H137V13.9999H138.325V10.953L139.521 9.7008L142.388 13.9999H143.98L140.459 8.71894L144.273 4.72461Z" fill="#009646"/>
<path d="M160.273 4.72461H158.441L154.325 9.03364V4.72461H153.663H153V13.9999H154.325V10.953L155.521 9.7008L158.388 13.9999H159.98L156.459 8.71894L160.273 4.72461Z" fill="#009646"/>
<path d="M176.273 4.72461H174.441L170.325 9.03364V4.72461H169.663H169V13.9999H170.325V10.953L171.521 9.7008L174.388 13.9999H175.98L172.459 8.71894L176.273 4.72461Z" fill="#D54F3E"/>
<path d="M44.978 1H42.212L36 7.504V1H35H34V15H36V10.401L37.805 8.511L42.132 15H44.535L39.221 7.029L44.978 1Z" fill="#7E6736"/>
<path d="M60.978 1H58.212L52 7.504V1H51H50V15H52V10.401L53.805 8.511L58.132 15H60.535L55.221 7.029L60.978 1Z" fill="#D54F3E"/>
<g opacity="0.4">
<path d="M76.978 1H74.212L68 7.504V1H67H66V15H68V10.401L69.805 8.511L74.132 15H76.535L71.221 7.029L76.978 1Z" fill="#111111"/>
</g>
</g>
<defs>
<clipPath id="clip0">
<rect width="176" height="16" fill="white"/>
</clipPath>
</defs>
</svg>
