<svg width="16" height="16" viewBox="0 0 16 16" fill="none" xmlns="http://www.w3.org/2000/svg">
<g opacity="0.8">
<path d="M2.5 2.5L7 7L2.5 11.5" stroke="#707070" stroke-linecap="round" stroke-linejoin="round"/>
</g>
<path d="M11.4089 12.5902L12.5889 11.4102" stroke="#4D4D4D" stroke-linecap="round" stroke-linejoin="round"/>
<path d="M11.3634 10.091L12.4274 9.02702C12.765 8.68957 13.2228 8.5 13.7001 8.5C14.1774 8.5 14.6352 8.68957 14.9728 9.02702C15.3102 9.36461 15.4998 9.8224 15.4998 10.2997C15.4998 10.7771 15.3102 11.2348 14.9728 11.5724L13.9088 12.6364" stroke="#4D4D4D" stroke-linecap="round" stroke-linejoin="round"/>
<path d="M10.0908 11.3633L9.02683 12.4273C8.68938 12.7649 8.49982 13.2226 8.49982 13.7C8.49982 14.1773 8.68938 14.6351 9.02683 14.9727C9.36441 15.3101 9.82219 15.4997 10.2995 15.4997C10.7768 15.4997 11.2346 15.3101 11.5722 14.9727L12.6362 13.9087" stroke="#4D4D4D" stroke-linecap="round" stroke-linejoin="round"/>
</svg>
