<svg width="52" height="52" viewBox="0 0 52 52" fill="none" xmlns="http://www.w3.org/2000/svg">
<circle cx="26" cy="26" r="26" fill="#CECFD6"/>
<path d="M22.2549 23.8037H24.7041C25.904 23.8037 26.8936 23.6058 27.6729 23.21C28.4645 22.8018 29.0521 22.2513 29.4355 21.5586C29.8314 20.8535 30.0293 20.0618 30.0293 19.1836C30.0293 18.1445 29.8561 17.2725 29.5098 16.5674C29.1634 15.8623 28.6439 15.3304 27.9512 14.9717C27.2585 14.613 26.3802 14.4336 25.3164 14.4336C24.3516 14.4336 23.498 14.6253 22.7559 15.0088C22.026 15.3799 21.4508 15.9118 21.0303 16.6045C20.6221 17.2972 20.418 18.1136 20.418 19.0537H16.9854C16.9854 17.6807 17.3317 16.4313 18.0244 15.3057C18.7171 14.18 19.6882 13.2832 20.9375 12.6152C22.1992 11.9473 23.6589 11.6133 25.3164 11.6133C26.9492 11.6133 28.3779 11.904 29.6025 12.4854C30.8271 13.0544 31.7796 13.9079 32.46 15.0459C33.1403 16.1715 33.4805 17.5755 33.4805 19.2578C33.4805 19.9382 33.3197 20.668 32.998 21.4473C32.6888 22.2142 32.2002 22.9316 31.5322 23.5996C30.8766 24.2676 30.0231 24.818 28.9717 25.251C27.9202 25.6715 26.6585 25.8818 25.1865 25.8818H22.2549V23.8037ZM22.2549 26.624V24.5645H25.1865C26.9059 24.5645 28.3285 24.7686 29.4541 25.1768C30.5798 25.585 31.4642 26.1292 32.1074 26.8096C32.763 27.4899 33.2207 28.2383 33.4805 29.0547C33.7526 29.8587 33.8887 30.6628 33.8887 31.4668C33.8887 32.7285 33.6722 33.848 33.2393 34.8252C32.8187 35.8024 32.2188 36.6312 31.4395 37.3115C30.6725 37.9919 29.7695 38.5052 28.7305 38.8516C27.6914 39.1979 26.5596 39.3711 25.335 39.3711C24.1598 39.3711 23.0527 39.2041 22.0137 38.8701C20.987 38.5361 20.0778 38.0537 19.2861 37.4229C18.4945 36.7796 17.876 35.9941 17.4307 35.0664C16.9854 34.1263 16.7627 33.0563 16.7627 31.8564H20.1953C20.1953 32.7965 20.3994 33.6191 20.8076 34.3242C21.2282 35.0293 21.8219 35.5798 22.5889 35.9756C23.3682 36.359 24.2835 36.5508 25.335 36.5508C26.3864 36.5508 27.2894 36.3714 28.0439 36.0127C28.8109 35.6416 29.3984 35.085 29.8066 34.3428C30.2272 33.6006 30.4375 32.6667 30.4375 31.541C30.4375 30.4154 30.2025 29.4938 29.7324 28.7764C29.2624 28.0465 28.5944 27.5085 27.7285 27.1621C26.875 26.8034 25.8669 26.624 24.7041 26.624H22.2549Z" fill="#6B7782"/>
</svg>
