<svg width="16" height="16" viewBox="0 0 16 16" fill="none" xmlns="http://www.w3.org/2000/svg">
<path d="M14 3H2C1.44772 3 1 3.44773 1 4.00002V13C1 13.5523 1.44772 14 2 14H14C14.5523 14 15 13.5523 15 13V4.00002C15 3.44773 14.5523 3 14 3Z" fill="#CAD4D9"/>
<path d="M2 2.00012C1.446 2.00012 1 2.44613 1 3.00014V4.00015H15V3.00014C15 2.44613 14.554 2.00012 14 2.00012H2Z" fill="#40A6FF"/>
<path opacity="0.3" d="M13 7.50009V6.50013C13 6.22399 12.7761 6.00012 12.5 6.00012H3.5C3.22386 6.00012 3 6.22399 3 6.50013V7.50009C3 7.77623 3.22386 8.0001 3.5 8.0001H12.5C12.7761 8.0001 13 7.77623 13 7.50009Z" fill="#528299"/>
<path opacity="0.6" d="M13 10.5V9.50001C13 9.22387 12.7761 9 12.5 9H3.5C3.22386 9 3 9.22387 3 9.50001V10.5C3 10.7762 3.22386 11 3.5 11H12.5C12.7761 11 13 10.7762 13 10.5Z" fill="#528299"/>
<path opacity="0.5" d="M14 4H2V5H14V4Z" fill="#C4C4C4"/>
</svg>
