<svg width="16" height="16" viewBox="0 0 16 16" fill="none" xmlns="http://www.w3.org/2000/svg">
<circle cx="7" cy="1" r="1" fill="#D95341"/>
<circle cx="7" cy="4" r="1" fill="#D95341"/>
<circle cx="7" cy="7" r="1" fill="#D95341"/>
<circle cx="4" cy="5" r="1" fill="#D95341"/>
<circle cx="1" cy="1" r="1" transform="matrix(1 0 0 -1 3 10)" fill="#D95341"/>
<circle cx="1" cy="1" r="1" transform="matrix(-1 0 0 1 11 4)" fill="#D95341"/>
<circle opacity="0.2" cx="10" cy="9" r="1" transform="rotate(180 10 9)" fill="#D95341"/>
<circle cx="1" cy="3" r="1" fill="#D95341"/>
<circle cx="1" cy="1" r="1" transform="matrix(1 0 0 -1 0 12)" fill="#D95341"/>
<circle cx="1" cy="1" r="1" transform="matrix(-1 0 0 1 14 2)" fill="#D95341"/>
<circle opacity="0.5" cx="7" cy="10" r="1" fill="#D95341"/>
<circle opacity="0.2" cx="7" cy="13" r="1" fill="#D95341"/>
<path fill-rule="evenodd" clip-rule="evenodd" d="M12.9425 11.0566C13.1378 11.2519 13.1378 11.5684 12.9425 11.7637L11.7625 12.9437C11.5672 13.139 11.2506 13.139 11.0554 12.9437C10.8601 12.7484 10.8601 12.4319 11.0554 12.2366L12.2354 11.0566C12.4306 10.8613 12.7472 10.8613 12.9425 11.0566Z" fill="#404040"/>
<path fill-rule="evenodd" clip-rule="evenodd" d="M12.7809 9.38064C12.7808 9.38067 12.7809 9.38062 12.7809 9.38064L11.717 10.4446C11.5217 10.6398 11.2051 10.6398 11.0099 10.4446C10.8146 10.2493 10.8146 9.93272 11.0098 9.73745L12.0738 8.67347C12.5052 8.24229 13.0902 8 13.7001 8C14.3099 8 14.8949 8.24222 15.3262 8.6734C15.7574 9.10475 15.9997 9.68983 15.9997 10.2997C15.9997 10.9096 15.7575 11.4946 15.3264 11.9259L14.2623 12.99C14.0671 13.1852 13.7505 13.1852 13.5552 12.99C13.36 12.7947 13.36 12.4781 13.5552 12.2829L14.6191 11.219C14.6191 11.2189 14.6191 11.219 14.6191 11.219C14.8628 10.9751 14.9997 10.6444 14.9997 10.2997C14.9997 9.95504 14.8629 9.62446 14.6193 9.38064C14.3754 9.13692 14.0448 9 13.7001 9C13.3553 9 13.0247 9.13696 12.7809 9.38064Z" fill="#404040"/>
<path fill-rule="evenodd" clip-rule="evenodd" d="M10.4443 11.0097C10.6396 11.205 10.6396 11.5216 10.4443 11.7168L9.38046 12.7807C9.38043 12.7808 9.38048 12.7807 9.38046 12.7807C9.13678 13.0246 8.99982 13.3552 8.99982 13.7C8.99982 14.0447 9.13673 14.3754 9.38046 14.6192C9.62427 14.8628 9.95484 14.9997 10.2995 14.9997C10.6442 14.9997 10.9748 14.8628 11.2186 14.6191C11.2187 14.6191 11.2186 14.6191 11.2186 14.6191L12.2826 13.5551C12.4779 13.3599 12.7944 13.3599 12.9897 13.5551C13.185 13.7504 13.185 14.067 12.9897 14.2622L11.9258 15.3262C11.4944 15.7574 10.9094 15.9997 10.2995 15.9997C9.68962 15.9997 9.10469 15.7575 8.67334 15.3263C8.24217 14.8949 7.99982 14.3099 7.99982 13.7C7.99982 13.0901 8.24203 12.5051 8.6732 12.0738L9.73724 11.0097C9.9325 10.8145 10.2491 10.8145 10.4443 11.0097Z" fill="#404040"/>
</svg>
