<?xml version="1.0" encoding="UTF-8"?>
<svg width="64" height="64" viewBox="0 0 64 64" xmlns="http://www.w3.org/2000/svg">
<path d="M30 13H34V51H30V13Z" fill="#EFEEF6"/>
<path d="M13 30H51V34H13V30Z" fill="#EFEEF6"/>
<path fill-rule="evenodd" clip-rule="evenodd" d="M32 64C49.6731 64 64 49.6731 64 32C64 14.3269 49.6731 0 32 0C14.3269 0 0 14.3269 0 32C0 49.6731 14.3269 64 32 64ZM32 61C48.0162 61 61 48.0162 61 32C61 15.9838 48.0162 3 32 3C15.9838 3 3 15.9838 3 32C3 48.0162 15.9838 61 32 61Z" fill="#EFEEF6"/>
</svg>
