<svg width="16" height="16" viewBox="0 0 16 16" fill="none" xmlns="http://www.w3.org/2000/svg">
<g clip-path="url(#clip0_1290:400)">
<path d="M3.5 16C4.32843 16 5 15.3284 5 14.5C5 13.6716 4.32843 13 3.5 13C2.67157 13 2 13.6716 2 14.5C2 15.3284 2.67157 16 3.5 16Z" fill="#4D4D4D"/>
<path d="M12.5 16C13.3284 16 14 15.3284 14 14.5C14 13.6716 13.3284 13 12.5 13C11.6716 13 11 13.6716 11 14.5C11 15.3284 11.6716 16 12.5 16Z" fill="#4D4D4D"/>
<path d="M15.0005 9.99943H2.61847L3.61847 7.99943H13.0005C13.2235 7.99937 13.4402 7.92473 13.6159 7.78738C13.7917 7.65003 13.9165 7.45786 13.9705 7.24143L14.9705 3.24143C15.0072 3.09405 15.0099 2.94023 14.9784 2.79165C14.9468 2.64306 14.8818 2.50362 14.7883 2.38391C14.6948 2.2642 14.5753 2.16735 14.4388 2.10074C14.3023 2.03412 14.1524 1.99947 14.0005 1.99943H3.41447L1.70747 0.292431C1.51886 0.110273 1.26626 0.00947813 1.00407 0.0117566C0.741868 0.014035 0.491056 0.119204 0.305648 0.304612C0.12024 0.49002 0.0150706 0.740833 0.0127922 1.00303C0.0105138 1.26523 0.111308 1.51783 0.293466 1.70643L2.00047 3.41343V6.76343L0.105466 10.5524C0.0292635 10.7049 -0.00668876 10.8744 0.00102416 11.0447C0.00873708 11.215 0.0598591 11.3805 0.149535 11.5255C0.23921 11.6704 0.364462 11.7901 0.513393 11.8731C0.662324 11.956 0.82999 11.9995 1.00047 11.9994H15.0005C15.2657 11.9994 15.52 11.8941 15.7076 11.7065C15.8951 11.519 16.0005 11.2646 16.0005 10.9994C16.0005 10.7342 15.8951 10.4799 15.7076 10.2923C15.52 10.1048 15.2657 9.99943 15.0005 9.99943Z" fill="#4D4D4D"/>
</g>
<defs>
<clipPath id="clip0_1290:400">
<rect width="16" height="16" fill="white"/>
</clipPath>
</defs>
</svg>
